<svg width="84" height="84" viewBox="0 0 84 84" fill="none" xmlns="http://www.w3.org/2000/svg">
<g clip-path="url(#clip0_179_18)">
<rect width="84" height="84" rx="20" fill="url(#paint0_linear_179_18)"/>
<rect x="-22.5" y="61.5" width="45" height="45" stroke="#DBDBDB" stroke-opacity="0.33" stroke-width="15"/>
<circle cx="82" cy="9" r="32.5" stroke="#DBDBDB" stroke-opacity="0.33" stroke-width="15"/>
<path d="M42.098 39.5469H38.9872C38.9304 39.1444 38.8144 38.7869 38.6392 38.4744C38.464 38.1572 38.2391 37.8873 37.9645 37.6648C37.6899 37.4422 37.3726 37.2718 37.0128 37.1534C36.6577 37.035 36.2718 36.9759 35.8551 36.9759C35.1023 36.9759 34.4465 37.1629 33.8878 37.5369C33.3291 37.9062 32.8958 38.446 32.5881 39.1562C32.2803 39.8617 32.1264 40.7187 32.1264 41.7273C32.1264 42.7642 32.2803 43.6354 32.5881 44.3409C32.9006 45.0464 33.3362 45.5791 33.8949 45.9389C34.4536 46.2988 35.0999 46.4787 35.8338 46.4787C36.2457 46.4787 36.6269 46.4242 36.9773 46.3153C37.3324 46.2064 37.6473 46.0478 37.9219 45.8395C38.1965 45.6264 38.4238 45.3684 38.6037 45.0653C38.7884 44.7623 38.9162 44.4167 38.9872 44.0284L42.098 44.0426C42.0175 44.7102 41.8163 45.3542 41.4943 45.9744C41.1771 46.59 40.7486 47.1416 40.2088 47.6293C39.6738 48.1122 39.0346 48.4957 38.2912 48.7798C37.5526 49.0592 36.7169 49.1989 35.7841 49.1989C34.4867 49.1989 33.3267 48.9053 32.304 48.3182C31.286 47.7311 30.4811 46.8812 29.8892 45.7685C29.3021 44.6558 29.0085 43.3087 29.0085 41.7273C29.0085 40.1411 29.3068 38.7917 29.9034 37.679C30.5 36.5663 31.3097 35.7187 32.3324 35.1364C33.3551 34.5492 34.5057 34.2557 35.7841 34.2557C36.6269 34.2557 37.4081 34.3741 38.1278 34.6108C38.8523 34.8475 39.4938 35.1932 40.0526 35.6477C40.6113 36.0975 41.0658 36.6491 41.4162 37.3026C41.7713 37.956 41.9986 38.7041 42.098 39.5469ZM44.3033 49V34.4545H50.0419C51.1451 34.4545 52.085 34.6652 52.8615 35.0866C53.638 35.5033 54.2299 36.0833 54.6371 36.8267C55.049 37.5653 55.255 38.4176 55.255 39.3835C55.255 40.3494 55.0466 41.2017 54.63 41.9403C54.2133 42.679 53.6096 43.2543 52.8189 43.6662C52.0329 44.0781 51.0812 44.2841 49.9638 44.2841H46.3061V41.8196H49.4666C50.0585 41.8196 50.5462 41.7178 50.9297 41.5142C51.3179 41.3059 51.6068 41.0194 51.7962 40.6548C51.9903 40.2855 52.0874 39.8617 52.0874 39.3835C52.0874 38.9006 51.9903 38.4792 51.7962 38.1193C51.6068 37.7547 51.3179 37.473 50.9297 37.2741C50.5414 37.0705 50.049 36.9688 49.4524 36.9688H47.3786V49H44.3033Z" fill="white"/>
</g>
<defs>
<linearGradient id="paint0_linear_179_18" x1="84" y1="5.5" x2="12.5" y2="93" gradientUnits="userSpaceOnUse">
<stop stop-color="#1D61D9"/>
<stop offset="1" stop-color="#2BD3A4"/>
</linearGradient>
<clipPath id="clip0_179_18">
<rect width="84" height="84" rx="20" fill="white"/>
</clipPath>
</defs>
</svg>
