<svg width="84" height="84" viewBox="0 0 84 84" fill="none" xmlns="http://www.w3.org/2000/svg">
<g clip-path="url(#clip0_179_20)">
<rect width="84" height="84" rx="20" fill="url(#paint0_linear_179_20)"/>
<path d="M29.2642 49V34.4545H39.0653V36.9901H32.3395V40.456H38.5611V42.9915H32.3395V46.4645H39.0938V49H29.2642ZM54.3441 39.5469H51.2333C51.1765 39.1444 51.0605 38.7869 50.8853 38.4744C50.7101 38.1572 50.4852 37.8873 50.2106 37.6648C49.936 37.4422 49.6187 37.2718 49.2589 37.1534C48.9038 37.035 48.5179 36.9759 48.1012 36.9759C47.3484 36.9759 46.6926 37.1629 46.1339 37.5369C45.5752 37.9062 45.1419 38.446 44.8342 39.1562C44.5264 39.8617 44.3725 40.7187 44.3725 41.7273C44.3725 42.7642 44.5264 43.6354 44.8342 44.3409C45.1467 45.0464 45.5823 45.5791 46.141 45.9389C46.6997 46.2988 47.346 46.4787 48.0799 46.4787C48.4918 46.4787 48.873 46.4242 49.2234 46.3153C49.5785 46.2064 49.8933 46.0478 50.168 45.8395C50.4426 45.6264 50.6699 45.3684 50.8498 45.0653C51.0344 44.7623 51.1623 44.4167 51.2333 44.0284L54.3441 44.0426C54.2636 44.7102 54.0624 45.3542 53.7404 45.9744C53.4232 46.59 52.9947 47.1416 52.4549 47.6293C51.9199 48.1122 51.2807 48.4957 50.5373 48.7798C49.7987 49.0592 48.9629 49.1989 48.0302 49.1989C46.7328 49.1989 45.5728 48.9053 44.5501 48.3182C43.5321 47.7311 42.7272 46.8812 42.1353 45.7685C41.5482 44.6558 41.2546 43.3087 41.2546 41.7273C41.2546 40.1411 41.5529 38.7917 42.1495 37.679C42.7461 36.5663 43.5558 35.7187 44.5785 35.1364C45.6012 34.5492 46.7518 34.2557 48.0302 34.2557C48.873 34.2557 49.6542 34.3741 50.3739 34.6108C51.0984 34.8475 51.7399 35.1932 52.2987 35.6477C52.8574 36.0975 53.3119 36.6491 53.6623 37.3026C54.0174 37.956 54.2447 38.7041 54.3441 39.5469Z" fill="white"/>
<circle cx="41.5" cy="98.5" r="30" stroke="#DBDBDB" stroke-opacity="0.23" stroke-width="15"/>
<rect x="-24.5" y="-21.5" width="45" height="45" stroke="#DBDBDB" stroke-opacity="0.23" stroke-width="15"/>
</g>
<defs>
<linearGradient id="paint0_linear_179_20" x1="60.5" y1="14.5" x2="6" y2="84" gradientUnits="userSpaceOnUse">
<stop stop-color="#4E10C6"/>
<stop offset="1" stop-color="#6B40BE" stop-opacity="0"/>
</linearGradient>
<clipPath id="clip0_179_20">
<rect width="84" height="84" rx="20" fill="white"/>
</clipPath>
</defs>
</svg>
