<svg width="84" height="84" viewBox="0 0 84 84" fill="none" xmlns="http://www.w3.org/2000/svg">
<g clip-path="url(#clip0_179_17)">
<rect width="84" height="84" rx="20" fill="url(#paint0_linear_179_17)"/>
<rect x="49.5" y="-10.5" width="45" height="45" stroke="#DBDBDB" stroke-opacity="0.3" stroke-width="15"/>
<circle cx="6" cy="79" r="22.5" stroke="#DBDBDB" stroke-opacity="0.3" stroke-width="15"/>
<path d="M36.9091 39.1562C36.8097 38.8106 36.67 38.5052 36.4901 38.2401C36.3101 37.9702 36.09 37.7429 35.8295 37.5582C35.5739 37.3688 35.2803 37.2244 34.9489 37.125C34.6222 37.0256 34.2599 36.9759 33.8622 36.9759C33.1188 36.9759 32.4654 37.1605 31.902 37.5298C31.3433 37.8991 30.9077 38.4366 30.5952 39.142C30.2827 39.8428 30.1264 40.6998 30.1264 41.7131C30.1264 42.7263 30.2803 43.5881 30.5881 44.2983C30.8958 45.0085 31.3314 45.5507 31.8949 45.9247C32.4583 46.294 33.1236 46.4787 33.8906 46.4787C34.5866 46.4787 35.1809 46.3556 35.6733 46.1094C36.1705 45.8584 36.5492 45.5057 36.8097 45.0511C37.0748 44.5966 37.2074 44.0592 37.2074 43.4389L37.8324 43.5312H34.0824V41.2159H40.169V43.0483C40.169 44.3267 39.8991 45.4252 39.3594 46.3438C38.8196 47.2576 38.0762 47.9631 37.1293 48.4602C36.1823 48.9527 35.098 49.1989 33.8764 49.1989C32.5128 49.1989 31.3149 48.8982 30.2827 48.2969C29.2505 47.6908 28.4455 46.8314 27.8679 45.7188C27.295 44.6013 27.0085 43.2756 27.0085 41.7415C27.0085 40.5625 27.179 39.5114 27.5199 38.5881C27.8655 37.66 28.3485 36.8741 28.9688 36.2301C29.589 35.5862 30.3111 35.0961 31.1349 34.7599C31.9588 34.4238 32.8513 34.2557 33.8125 34.2557C34.6364 34.2557 35.4034 34.3764 36.1136 34.6179C36.8239 34.8546 37.4536 35.1908 38.0028 35.6264C38.5568 36.062 39.009 36.5805 39.3594 37.1818C39.7098 37.7784 39.9347 38.4366 40.0341 39.1562H36.9091ZM42.479 49V34.4545H45.5543V40.456H51.7972V34.4545H54.8654V49H51.7972V42.9915H45.5543V49H42.479Z" fill="white"/>
</g>
<defs>
<linearGradient id="paint0_linear_179_17" x1="-11" y1="102" x2="102" y2="11.5" gradientUnits="userSpaceOnUse">
<stop stop-color="#FF0070"/>
<stop offset="1" stop-color="#F83AC6"/>
</linearGradient>
<clipPath id="clip0_179_17">
<rect width="84" height="84" rx="20" fill="white"/>
</clipPath>
</defs>
</svg>
