<svg width="500" height="500" viewBox="0 0 500 500" fill="none" xmlns="http://www.w3.org/2000/svg">
<g clip-path="url(#clip0_181_18)">
<rect width="500" height="500" rx="250" fill="white"/>
<g clip-path="url(#clip1_181_18)">
<path fill-rule="evenodd" clip-rule="evenodd" d="M84.3211 568.159C100.992 580.748 117.667 593.333 134.338 605.922C145.021 613.991 155.703 622.054 166.386 630.121C170.173 632.982 174.284 635.242 176.319 639.007C181.109 647.879 181.626 661.103 183.906 670.604C185.435 676.969 186.963 683.336 188.492 689.701C189.281 692.983 189.4 699.717 191.58 702.561C193.983 705.691 200.011 706.604 204.301 708.037L241.339 720.409L311.129 743.721C316.394 715.237 321.663 686.753 326.928 658.269C361.817 710.216 396.704 762.159 431.592 814.105C440.189 826.907 447.714 841.477 458.966 852.634C482.917 876.38 507.182 899.877 531.289 923.494C553.727 945.479 576.167 967.464 598.605 989.448L632.167 870.306C640.857 839.46 653.458 808.999 653.561 776.516C653.646 749.739 653.733 722.964 653.818 696.187C653.828 692.624 655.966 682.233 653.825 678.991C651.818 675.955 641.539 672.571 638.264 670.808C576.33 637.469 508.73 598.782 463.241 546.661C430.634 509.295 405.856 465.294 380.316 424.046C370.348 407.946 360.612 391.701 350.088 375.87C347.393 371.814 344.628 366.334 340.83 362.979C338.376 360.812 333.494 357.298 330.704 357.203C329.495 357.162 323.017 363.416 321.87 364.24C313.765 370.063 305.565 375.78 297.388 381.522C274.407 397.658 251.394 413.76 228.584 430.089C210.799 442.818 192.295 455.255 175.915 469.477C158.937 484.217 144.548 501.891 129.549 518.282C114.391 534.844 99.3188 551.475 84.3211 568.159Z" fill="#FAFF00"/>
<path fill-rule="evenodd" clip-rule="evenodd" d="M1308.19 242.984C1314.96 255.63 1322.55 277.076 1312.02 288.507C1306.74 294.249 1298.15 297.794 1291.81 302.513C1284.35 308.055 1277.03 313.165 1268.26 317.047C1250.76 324.79 1228.07 327.499 1212.74 338.429C1207.59 342.102 1203.67 351.322 1196.91 352.805C1193.87 353.469 1189.99 352.328 1187.16 351.074C1181.07 348.367 1182.45 345.465 1176.14 348.978L1178.76 341.123C1175.4 339.834 1174.11 342.768 1173.79 345.172C1168.74 342.318 1147.95 334.185 1154.61 346.152C1160.38 356.526 1175.43 357.328 1182.63 365.714C1188.14 372.136 1178.91 381.205 1170.84 380.149C1167.21 379.675 1163.01 374.56 1159.8 373.047C1152.69 369.701 1145.31 370.505 1138.27 372.906C1142.16 384.624 1158.46 384.162 1165.9 392.585C1172.63 400.206 1165.14 409.671 1161.21 416.541C1156.5 424.777 1154.95 435.348 1149.79 443.008C1142 454.574 1126.77 444.197 1115.5 441.832C1103.42 439.301 1083.79 444.369 1073.11 437.308C1061.64 429.726 1065.51 409.087 1065.6 398.635C1065.82 374.747 1074.74 343.553 1060.54 320.996C1080.77 313.586 1102.48 309.442 1122.32 301.211C1143.75 292.319 1164.23 282.018 1186.14 273.927C1208.94 265.506 1231.55 256.505 1254.69 248.782C1264.79 245.411 1275.27 242.99 1285.24 239.347C1294.11 236.107 1302.51 232.379 1308.19 242.984ZM783.575 779.888C781.831 771.942 784.593 771.928 792.743 774.653C788.193 775.252 786.513 776.793 783.575 779.888ZM923.267 888.97L908.9 884.171C910.845 877.723 921.823 885.754 923.267 888.97ZM944.142 897.678C937.779 895.553 931.671 893.682 926.028 889.983C933.057 891.378 939.441 891.692 944.142 897.678ZM1390.38 1016.22C1392.95 1010.56 1391.43 1000 1398.25 996.798C1405.25 993.506 1420.58 999.077 1428.16 1000.27C1440.68 1002.25 1453.17 1004.47 1465.65 1006.78C1473.83 1008.29 1482.21 1009.59 1482.58 1018.45C1483.11 1031.55 1471.26 1046.04 1466.65 1057.96C1457.52 1081.51 1447.96 1104.89 1439.42 1128.66C1431.14 1151.69 1423.79 1175.09 1418.78 1199.09C1416.52 1209.94 1415.28 1220.87 1413.79 1231.85C1413 1237.64 1412.45 1253.67 1405.65 1256.87C1392.85 1262.88 1375.33 1239.92 1371.14 1231.17C1363.36 1214.92 1360.62 1194.6 1360.61 1177.48C1360.6 1168.33 1357.44 1152.03 1368.26 1148.44C1376.56 1145.69 1385.37 1148.85 1392.78 1143.4C1409.95 1130.79 1373.28 1129.27 1365.71 1138.22C1349.81 1125.2 1379.94 1120.59 1387.95 1117.18C1390.8 1115.96 1400.17 1112.05 1397.44 1108.08C1395.4 1105.1 1384.25 1105.95 1381.34 1105.83C1376.91 1105.64 1369.78 1106.52 1365.68 1104.21C1358.27 1100.04 1359.41 1089.42 1360.73 1083.27C1362.78 1073.74 1369.07 1065.81 1373.19 1057.09C1379.53 1043.71 1384.24 1029.68 1390.38 1016.22ZM612.745 859.062C608.307 877.751 599.089 894.971 595.594 913.927C592.289 931.863 593.964 950.364 595.062 968.679C539.818 923.543 492.603 873.249 451.299 817.375C430.726 789.549 410.815 760.361 392.188 731.498C383.523 718.068 375.359 704.444 367.129 690.816C359.787 678.66 344.455 666.587 340.294 653.552C336.742 642.426 346.625 628.357 350.341 618.584C354.54 607.537 360.238 594.288 359.697 581.966C359.305 573.036 351.932 568.153 348.354 577.973C344.132 589.552 341.661 601.504 336.475 612.932C323.044 642.544 307.932 670.365 300.572 702.281C298.884 709.593 299.16 720.051 295.82 726.663C293.414 731.417 297.337 729.073 291.669 731.042C289.5 731.797 284.911 732.046 282.488 731.675C268.884 729.592 252.6 717.164 240.15 711.334C228.628 705.938 215.041 702.77 204.238 696.267C194.408 690.348 195.405 682.647 197.243 673.367C202.27 647.979 208.917 622.577 214.746 597.335C228.05 539.73 239.229 479.443 270.95 428.411C282.404 409.983 297.929 388.035 315.706 374.094C321.264 369.733 327.493 365.542 334.458 370.13C341.689 374.891 346.616 388.036 350.132 394.906C376.112 445.68 403.297 495.418 443.977 538.578C495.852 593.616 557.613 635.888 626.226 671.504C640.987 679.165 648.381 684.171 648.1 699.936C647.801 716.862 645.993 732.691 642.153 749.062C633.474 786.07 621.514 822.105 612.745 859.062ZM198.226 707.086C220.316 717.522 242.03 728.915 265.098 737.028C273.81 740.092 277.952 742.297 277.136 751.238C276.174 761.779 274.571 772.288 273.681 782.903C269.392 834.136 268.035 885.353 268.501 937.034C268.957 987.262 271.599 1037.4 267.698 1087.29C266.021 1108.76 261.606 1133.05 266.517 1154.76C271.803 1178.1 291.956 1181.99 312.571 1190.82C340.114 1202.6 365.04 1219.24 392.472 1231.32C405.579 1237.1 418.805 1242.79 432.481 1247.15C444.139 1250.86 457.464 1253.67 464.91 1263.87C439.338 1270.81 410.821 1268.62 384.263 1262.8C371.354 1259.97 358.965 1255.25 346.317 1251.45C336.132 1248.39 320.163 1242.83 309.792 1245.86C287.251 1252.46 355.057 1293.47 362.362 1297.66C374.659 1304.7 387.22 1311.32 399.523 1318.36C404.975 1321.47 425.713 1330.07 425.502 1337.74C425.069 1353.64 380.543 1335.25 373.526 1333.16C359.365 1328.93 345.236 1324.56 331.312 1319.59C321.263 1315.99 310.862 1310.58 300.391 1308.23C274.682 1302.47 296.719 1323.66 304.805 1330.25C325.215 1346.89 348.885 1359.24 369.973 1375.09C373.481 1377.73 385.738 1385.27 384.346 1390.26C382.795 1395.81 369.082 1391.18 364.968 1390.15C341.116 1384.2 315.987 1382.61 293.116 1372.92C270.022 1363.13 248.112 1347.59 230.98 1330.23C194.76 1293.52 183.07 1245.18 173.048 1199.28C161.583 1146.74 156.414 1093.59 155.396 1040.73C154.173 977.153 157.315 913.345 165.288 850.761C169.345 818.92 175.242 787.182 181.926 755.879C184.275 744.878 187.121 734.038 188.349 722.815C188.811 718.578 189.498 702.964 198.226 707.086ZM133.963 651.69C129.095 666.706 115.83 679.276 107.588 692.736C97.7704 708.759 86.2933 723.777 76.3095 739.71C56.7605 770.912 37.4094 802.201 17.6895 833.312C9.12844 846.817 1.01586 860.552 -7.79665 873.91C-17.2242 888.202 -27.5544 903.593 -28.4086 921.159C-29.7021 947.784 -3.21286 968.062 17.1543 984.8C31.5401 996.623 48.2742 1007.71 59.3386 1022.35C63.2853 1027.57 67.7243 1034.59 63.9434 1040.39C56.922 1051.17 39.9899 1043.43 30.7866 1038.69C17.4297 1031.8 4.54111 1024.06 -8.65417 1016.91C-13.9803 1014.02 -48.4387 993.935 -47.3064 1009.63C-46.4673 1021.27 -20.2597 1036.04 -11.5461 1043.25C-5.07076 1048.61 1.29915 1054.12 7.47378 1059.77C15.7091 1067.3 43.928 1090.39 35.2168 1102.59C22.7497 1120.06 -28.5072 1082.19 -39.5173 1074.83C-45.5608 1070.78 -89.3974 1034.15 -90.8524 1052.23C-91.4692 1059.93 -78.9417 1071.81 -74.0012 1077.49C-65.2373 1087.57 -56.3886 1097.65 -47.2304 1107.43C-37.8113 1117.5 -25.7858 1125.05 -16.5171 1135.01C-11.6385 1140.25 -5.90605 1149.53 -13.5892 1154.16C-25.5602 1161.38 -53.4793 1145.41 -64.2019 1139.86C-84.1361 1129.55 -102.97 1114.18 -116.422 1097.23C-136.633 1071.77 -134.37 1037.21 -130.465 1008.82C-125.427 972.168 -111.976 937.798 -96.5754 904.45C-79.2542 866.947 -61.8265 830.139 -40.1861 794.698C-18.3766 758.979 3.36859 723.217 27.8451 689.052C39.3762 672.957 50.365 656.395 62.774 640.876C75.9639 624.378 90.6923 608.897 102.127 591.23C118.921 604.397 135.714 617.567 152.51 630.735C143.103 634.826 136.898 642.627 133.963 651.69ZM297.819 335.969C296.147 328.783 296.618 321.618 289.246 316.738C282.733 312.424 273.527 313.003 266.133 312.28C245.433 310.251 225.124 304.753 206.964 294.364C214.582 292.776 243.757 287.052 231.736 273.628C224.485 265.531 207.032 274.907 199.402 276.798C196.253 266.006 184.127 248.044 197.333 241.233C205.871 236.831 212.916 236.113 218.944 228.352C226.262 218.932 228.759 208.595 231.364 197.348C233.189 189.475 232.659 187.254 240.258 186.478C246.231 185.872 253.059 186.808 259.09 187.302C270.979 188.279 294.717 189.274 302.544 200.1C309.4 209.583 293.281 232.111 303.757 239.487C309.471 243.509 312.729 234.509 317.029 232.089C322.353 229.093 329.728 227.607 336.036 227.119C340.701 226.756 348.334 226.384 351.531 230.723C355.955 236.719 349.053 242.788 343.755 244.661C336.719 247.147 328.615 246.009 321.321 247.608C307.939 250.544 316.682 253.907 324.087 258.397C331.781 263.06 329.719 267.325 328.507 274.508C326.385 287.111 324.991 300.098 324.703 312.96C324.556 319.552 324.976 326.13 325.826 332.74C326.372 336.998 329.611 345.146 328.333 349.142C325.964 356.546 310.401 357.029 303.35 358.904C301.496 351.26 299.6 343.623 297.819 335.969ZM1278.47 223.431C1247.48 233.549 1215.18 240.484 1184.05 250.282C1153.36 259.946 1124.83 273.46 1095.73 286.094C1082 292.056 1067.37 297.278 1054.51 304.628C1044.92 310.11 1042.8 316.088 1042.76 326.522C1042.62 356.169 1044.12 386.902 1048.79 416.562C1053.15 444.18 1061.67 470.86 1059.96 498.662C1058.21 527.041 1051.39 554.879 1040.75 581.008C1029.83 607.81 1014.8 631.506 996.684 654.412C979.528 676.105 963.152 699.228 938.436 714.425C912.526 730.358 880.177 738.549 849.831 746.014C834.469 749.795 818.49 753.303 802.31 753.903C788.269 754.423 772.521 752.567 759.543 757.582C762.139 760.742 764.1 764.251 767.608 766.588C769.203 767.652 770.087 764.822 771.385 765.575C773.828 766.997 775.467 771.001 776.292 773.286C779.258 781.497 775.157 780.17 785.331 781.674C791.262 782.553 803.266 788.649 796.424 795.396C801.448 793.749 804.939 800.198 807.736 802.858C806.001 803.465 805.078 804.633 804.963 806.359C812.605 805.609 812.195 807.423 816.514 812.066C817.303 812.915 821.732 816.465 821.395 816.056C825.121 820.571 825.171 824.367 830.463 828.042C834.809 831.061 840.226 832.469 844.512 835.647C840.926 836.561 837.341 837.475 833.758 838.39C836.208 838.777 839.901 839.149 842.308 838.95C843.813 838.823 847.698 837.417 848.405 837.689C851.043 838.718 849.404 841.482 851.434 843.103C855.242 846.147 856.651 844.057 860.595 846.34C865.123 848.96 862.286 850.984 866.005 853.639C866.711 854.142 870.433 853.299 872.03 854.164C874.289 855.383 874.984 857.765 876.888 859.161C881.732 862.712 885.915 863.406 890.311 867.557C892.016 869.166 892.905 870.976 894.978 872.401C896.803 873.652 901.512 873.844 902.947 875.562C909.859 883.854 895.108 878.085 891.523 876.434C861.423 862.572 832.848 840.808 807.005 820.993C794.165 811.147 780.828 801.283 769.024 790.374C764.27 785.983 759.467 781.142 756.579 775.543C752.924 768.461 753.256 760.257 748.803 753.461C749.505 754.533 745.18 746.497 746.936 748.138C745.367 746.671 742.364 747.314 740.747 746.189C738.739 744.79 738.685 743.395 737.197 741.365C734.526 737.717 733.767 734.19 728.01 736.595C728.505 730.337 727.32 726.87 720.752 723.392C715.946 720.85 715.71 722.663 713.311 718.559C710.9 714.439 714.064 713.818 708.792 709.968C702.483 705.363 693.381 700.665 686.443 696.851C680.386 693.521 669.948 693.205 667.01 686.846C663.291 678.792 667.564 674.125 655.6 671.349C643.936 668.643 638.132 663.23 628.483 656.514C609.22 643.109 587.479 633.153 567.703 620.436C525.501 593.295 490.84 558.674 457.686 522.822C427.051 489.694 404.707 450.221 383.214 412.133C377.326 401.704 371.289 391.317 364.33 381.394C358.339 372.847 348.401 366.538 342.737 358.354C339.298 353.383 339.473 346.326 338.644 340.712C337.26 331.349 335.153 320.039 338.993 311.276C351.397 319.411 366.902 325.892 380.643 318.701C397.312 309.977 388.349 294.029 385.231 279.886C379.546 254.108 401.615 227.326 388.596 202.155C385.496 196.16 378.577 192.465 375.838 186.397C373.832 181.943 374.651 176.834 373.588 172.219C370.357 158.2 359.212 148.196 343.301 147.92C328.757 147.666 322.041 152.579 320.158 136.022C318.632 122.584 311.955 115.438 295.681 115.854C280.165 116.251 275.5 124.914 263.537 130.589C251.949 136.087 244.973 122.996 240.497 114.483C234.721 103.504 227.586 99.3894 215.598 105.878C203.047 112.673 198.657 126.891 199.383 139.942C200.2 154.7 205.929 166.156 218.016 176.322C230.321 186.675 221.715 199.272 213.997 209.223C206.617 218.741 197.527 218.824 186.383 222.97C173.988 227.58 176.979 246.415 178.34 257.189C181.683 283.728 191.425 312.246 221.826 323.41C239.953 330.066 257.816 328.373 276.198 330.53C293.008 332.502 284.265 354.557 298.166 363.526C259.613 396.786 236.618 440.487 219.439 486.324C201.178 535.041 183.036 584.586 175.444 636.399C157.018 617.628 134.656 603.497 115.129 585.999C109.507 580.961 110.478 579.925 114.559 574.315C122.397 563.539 130.658 553.005 138.603 542.292C167.625 503.156 199.298 465.865 232.42 429.713C235.64 426.2 243.83 418.69 239.48 413.215C234.466 406.9 223.339 413.919 218.81 416.752C198.998 429.146 183.361 447.483 167.072 463.334C131.464 497.991 105.711 540.936 75.059 579.269C8.87943 662.021 -50.0496 750.818 -100.186 843.041C-112.421 865.546 -121.119 889.517 -132.295 912.493C-142.194 932.844 -149.252 954.187 -153.479 976.43C-161.281 1017.51 -165.01 1066.92 -131.998 1102.62C-102.19 1134.86 -65.6191 1161.94 -20.613 1171.29C-7.09483 1174.1 9.94334 1174.34 11.3617 1158.94C12.3459 1148.26 4.64514 1139.84 -3.0495 1132.15C-14.673 1120.55 -26.3252 1109.02 -37.3807 1096.96C-16.0986 1100.96 0.520005 1117.8 21.7826 1123.13C36.2117 1126.74 60.7468 1127.25 62.1931 1109.66C64.1771 1085.56 28.1352 1063.33 12.9529 1046.36C27.5837 1050.64 40.3188 1059.9 55.2612 1063.36C70.0208 1066.78 86.8484 1061.34 89.5549 1046.72C92.1086 1032.92 79.1052 1019.06 69.0314 1009.47C55.0123 996.13 39.0613 984.582 24.8714 971.387C11.5699 959.018 -4.2795 944.336 -1.53991 926.33C0.902408 910.259 12.8099 894.884 20.3353 880.717C41.2094 841.42 66.7009 804.597 90.0415 766.63C115.065 725.92 136.402 682.82 167.279 645.578C185.26 668.305 167.14 706.011 162.124 729.245C154.545 764.357 145.897 799.595 140.157 835.108C134.486 870.181 133.265 905.968 129.252 941.307C125.261 976.46 121.3 1011.56 122.581 1047.29C124.961 1113.64 132.876 1182.92 154.043 1247.75C163.894 1277.91 177.207 1306.23 200.513 1330.61C223.963 1355.15 253.744 1373.12 285.573 1386.82C305.393 1395.34 324.013 1398.33 345.035 1401.44C360.254 1403.69 384.589 1410.91 398.535 1404.17C425.156 1391.3 349.123 1347.84 340.492 1340.94C357.484 1343.73 446.896 1378.32 449.998 1344.45C451.384 1329.34 430.831 1318.94 418.589 1312.27C396.272 1300.1 373.331 1288.21 352.896 1273.33C385.248 1278.96 417.982 1287.74 450.746 1287.54C472.506 1287.4 513.517 1279.98 484.499 1255.55C462.737 1237.24 432.811 1231.03 406.58 1220.95C377.513 1209.77 351.568 1192.72 323.239 1180.29C312.265 1175.48 299.195 1172.15 296.4 1159.97C294.001 1149.51 296.52 1136.22 296.729 1125.74C297.349 1094.71 298.739 1063.73 298.78 1032.65C298.819 1001.56 297.162 970.328 295.771 939.172C294.441 909.375 297.676 880.486 297.911 850.855C298.044 834.008 297.888 817.268 298.908 800.482C299.384 792.67 300.313 784.912 300.715 777.094C301.014 771.299 297.793 762.457 299.712 757.037C301.69 751.46 307.732 751.133 310.301 744.839C313.065 738.062 313.7 730.444 315.407 723.357C319.567 706.09 323.187 687.468 331.394 671.597C341.446 686.141 346.178 702.83 353.31 718.455C361.535 736.474 370.931 754.392 382.144 771.182C404.705 804.966 429.435 838.034 455.497 869.787C481.207 901.109 511.317 929.471 542.918 955.941C558.664 969.13 574.877 982.244 592.287 993.537C599.438 998.176 606.744 1002.45 612.642 1008.49C618.052 1014.02 622.103 1020.62 631.312 1019.29C630.304 1015.93 628.738 1012.68 627.258 1009.44C648.87 1019.83 668.642 1033.27 690.081 1043.95C711.202 1054.47 734.038 1061.96 756.488 1069.23C803.504 1084.46 850.353 1096.67 899.158 1103.56C948.509 1110.53 998.32 1114.95 1047.8 1116.07C1095.44 1117.15 1145.2 1118.88 1192.12 1113.85C1242.24 1108.47 1295.85 1100.07 1342.27 1083.56C1344.64 1105.27 1335.03 1128.67 1331.86 1149.75C1328.55 1171.79 1329.42 1192.1 1336.44 1214.17C1343.54 1236.5 1357.15 1251.88 1380.21 1262.34C1396.62 1269.78 1418.41 1282.88 1429.51 1264.52C1437.49 1251.32 1437.54 1233.6 1441.02 1218.85C1447.1 1193.07 1454.05 1167.53 1461.19 1142.04C1468.32 1116.61 1475.6 1091.23 1483.09 1065.92C1486.61 1054.01 1490.34 1042.16 1493.79 1030.24C1495.34 1024.9 1496.32 1021.67 1499.61 1017.51C1502.21 1014.23 1504.94 1015.44 1502.85 1010.12C1499.48 1001.53 1481.33 997.001 1473.49 994.591C1461.39 990.867 1448.91 987.824 1436.44 985.974C1429.03 984.873 1378.91 984.817 1380.91 972.511C1359.64 980.478 1333.92 977.908 1310.9 976.99C1282.06 975.84 1253.61 973.782 1224.81 970.009C1163.3 961.949 1103.26 947.41 1044.16 927.67C1097.61 887.645 1135.55 839.078 1158.22 778.474C1180.75 718.222 1197.5 649.354 1194.05 583.839C1192.45 553.501 1186.61 524.853 1175.61 495.626C1171.67 485.151 1159.46 471.259 1163.33 460.531C1167.95 447.729 1178.27 435.109 1184.9 423.076C1197.58 400.065 1210.8 368.919 1234.76 353.857C1247.78 345.676 1263.43 341.924 1277.45 335.426C1288.12 330.483 1295.91 321.835 1306.56 316.95C1318.05 311.678 1328.39 318.752 1333.64 305.401C1338.12 293.988 1337.13 279.499 1334.31 267.423C1328.69 243.331 1309.55 213.281 1278.47 223.431Z" fill="black"/>
<path fill-rule="evenodd" clip-rule="evenodd" d="M629.433 220.159C662.545 198.709 689.697 170.488 720.929 146.947C728.747 141.055 747.633 120.871 757.317 124.362C762.979 126.402 767.742 135.955 770.65 140.413C775.63 148.048 780.789 155.39 786.3 162.742C811.541 196.401 837.533 228.84 860.491 263.85C863.943 269.12 882.606 287.754 870.283 287.641C864.695 287.589 859.479 284.352 853.357 287.037C850.205 288.418 846.044 296.434 841.674 292.234C843.053 290.869 844.434 289.502 845.811 288.134C841.235 288.025 836.719 286.413 832.157 287.016C829.322 287.392 827.393 289.331 824.379 289.22C820.214 289.067 816.439 285.706 812.424 284.716C808.422 283.727 804.137 284.294 800.1 284.138C776.174 283.221 753.435 278.164 729.853 273.909C706.52 269.699 683.283 267.519 660.12 261.974C635.654 256.117 611.08 250.746 586.363 246.276C589.352 240.517 598.335 238.323 603.967 235.425C612.818 230.87 621.178 225.506 629.433 220.159ZM851.899 319.954C850.202 320.938 848.324 321.525 846.268 321.713C843.077 304.713 853.8 317.91 851.899 319.954ZM831.97 322.987C831.818 329.882 830.711 334.502 826.213 338.354C825.787 338.72 823.851 337.489 823.143 338.168C822.526 338.763 822.624 340.018 822.065 340.516C820.165 342.214 821.566 346.764 816.856 345.588C816.778 336.698 814.337 327.166 816.296 318.461C819.021 306.366 832.224 311.377 831.97 322.987ZM796.366 341.525C795.759 350.798 798.645 359.57 794.253 368.171C790.133 376.247 782.71 381.981 774.761 386.781C775.028 368.219 779.942 350.301 780.379 331.811C780.521 325.792 778.485 317.139 782.236 311.852C786.405 305.98 793.421 307.865 800.335 307.997C798.955 319.163 797.106 330.261 796.366 341.525ZM751.995 385.975C751.458 394.9 753.47 404.878 742.885 408.955C741.176 409.613 742.19 411.027 738.109 409.519C733.805 407.929 732.177 403.479 731.654 399.946C730.428 391.638 736.082 382.456 738.073 374.733C741.252 362.415 742.534 349.224 744.346 336.594C745.603 327.85 745.122 318.225 748.592 310.018C751.272 303.682 760.123 297.915 761.501 308.914C762.758 318.93 757.799 331.663 756.467 341.616C754.499 356.328 752.889 371.106 751.995 385.975ZM706.025 379.513C706.81 379.185 707.595 378.858 708.379 378.53C708.327 378.61 706.468 374.401 706.669 373.518C707.65 369.23 709.367 365.16 710.492 360.913C713.085 351.128 714.436 340.843 715.513 330.742C716.391 322.514 716.099 313.736 719.462 306.088C722.372 299.466 724.185 299.273 731.742 301.301C725.917 318.739 719.504 336.564 717.927 355.088C716.899 367.147 720.83 382.129 704.473 382.878C704.99 381.756 705.507 380.635 706.025 379.513ZM678.303 358.134C683.448 355.046 681.232 341.202 682.348 335.814C683.559 329.963 684.633 324.435 684.879 318.455C685.096 313.152 683.457 294.819 691.375 293.34C703.507 291.071 697.693 314.726 696.981 318.546C693.992 334.566 690.571 351.081 690.107 367.486C686.173 364.369 682.239 361.252 678.303 358.134ZM650.561 325.523C655.665 325.985 649.8 285.539 662.678 289.139C672.56 291.9 665.797 328.26 662.858 334.221C658.871 331.263 656.163 326.033 650.561 325.523ZM624.713 303.967C615.418 300.044 615.854 298.923 617.229 291.814C618.278 286.392 617.242 278.111 627.191 282.936C635.71 287.067 634.093 307.924 624.713 303.967ZM596.02 280.626C591.445 277.277 599.571 275.892 602.202 276.685C609.202 278.794 606.14 282.97 604.637 287.471C601.818 285.137 598.942 282.852 596.02 280.626ZM576.606 210.797C575.057 211.3 572.861 216.296 571.768 217.562C569.077 220.673 566.081 219.103 567.662 224.762C567.324 224.905 565.123 223.682 564.931 223.897C564.834 224.005 562.382 226.782 561.275 227.58C558.602 229.507 556.053 231.195 552.984 232.761C549.724 234.425 545.364 235.727 542.481 237.91C541.266 238.831 539.783 239.42 539.052 240.775C537.159 244.291 540.437 244.198 539.927 247.654C539.614 249.784 536.488 250.366 536.748 253.374C536.97 255.973 540.109 258.487 541.901 260.21C548.424 266.479 555.82 272.104 562.451 278.323C596.362 310.123 627.912 343.931 662.389 375.278C678.999 390.378 695.619 405.896 714.301 418.859C727.776 428.207 746.298 445.341 764.047 441.852C776.953 439.315 785.757 428.544 794.286 420.454C807.12 408.28 821.988 398.072 834.636 385.655C849.717 370.848 865.047 356.697 881.042 342.696C887.863 336.725 896.355 332.118 902.939 326.095C906.966 322.411 905.007 313.99 911.266 314.443C905.442 306.195 913.653 298.735 910.411 290.359C908.503 285.433 903.149 280.51 900.287 275.977C895.998 269.178 892.273 262.109 888.12 255.246C871.619 228.002 853.661 201.937 834.865 175.887C816.917 151.006 801.228 123.703 780.164 100.714C771.802 91.5861 761.382 86.9578 748.786 86.9306C739.596 86.9139 724.895 89.3569 727.216 100.636C721.727 94.8199 709.97 106.258 707.262 110.014C707.223 110.072 712.082 112.614 711.563 113.74C711.748 113.339 699.01 113.453 696.969 114.69C690.898 118.36 683.729 122.897 678.273 127.291C673.269 131.322 669.831 136.191 664.489 139.93C658.015 144.464 650.876 148.226 644.424 152.792C638.196 157.2 630.964 162.018 625.867 167.488C621.446 172.231 619.268 177.088 613.405 180.725C606.149 185.224 600.825 189.483 594.86 195.475C589.701 200.658 584.13 208.37 576.606 210.797Z" fill="black"/>
<path fill-rule="evenodd" clip-rule="evenodd" d="M522.35 -48.3886C518.21 -43.595 511.454 -38.21 510.911 -31.5254C510.333 -24.4218 516.838 -19.3116 519.685 -13.0553C527.427 3.95439 506.903 5.50054 494.658 9.33547C483.095 12.9583 478.09 20.4184 480.64 31.8309C481.657 36.3781 486.783 55.8166 494.41 55.2725C499.897 54.8826 498.202 45.5588 498.047 42.5198C497.715 35.9239 497.527 29.8391 502.847 24.9838C512.822 15.8746 530.894 18.6835 538.084 6.03307C545.52 -7.04786 530.701 -12.5081 528.403 -24.3832C526.864 -32.3437 535.109 -34.7772 535.935 -41.6846C536.724 -48.2665 527.606 -54.4788 522.35 -48.3886Z" fill="black"/>
<path fill-rule="evenodd" clip-rule="evenodd" d="M255.617 242.797C263.214 237.678 267.617 223.888 263.167 215.347C258.641 206.656 254.734 214.935 253.181 220.263C251.988 224.363 251.711 232.69 244.629 227.761C238.344 223.387 245.649 213.322 238.314 209.829C233.78 217.725 231.279 227.256 236.665 236.016C240.556 242.349 248.504 247.589 255.617 242.797Z" fill="black"/>
</g>
</g>
<defs>
<clipPath id="clip0_181_18">
<rect width="500" height="500" rx="250" fill="white"/>
</clipPath>
<clipPath id="clip1_181_18">
<rect width="2203.01" height="1856.54" fill="white" transform="translate(-491 1567.53) rotate(-71.5293)"/>
</clipPath>
</defs>
</svg>
