<svg width="500" height="500" viewBox="0 0 500 500" fill="none" xmlns="http://www.w3.org/2000/svg">
<g clip-path="url(#clip0_181_10)">
<rect width="500" height="500" rx="250" fill="white"/>
<g clip-path="url(#clip1_181_10)">
<path fill-rule="evenodd" clip-rule="evenodd" d="M-209.704 391.335C-161.501 387.133 -115.514 406.822 -76.9884 437.51C-27.3347 477.063 14.7501 533.628 43.2368 593.232C46.2671 595.79 49.2522 598.413 52.2167 601.06C68.0713 615.218 83.5608 630.172 97.2907 646.815C104.956 656.106 125.061 678.697 116.333 692.946C114.481 695.972 111.439 697.709 108.392 698.906C99.8489 702.259 90.9437 703.957 82.5185 707.88C72.1182 712.72 61.3335 719.499 54.6704 729.835C52.7754 732.775 52.2812 736.243 49.7334 737.539C47.0321 738.913 41.939 738.377 38.9861 738.694C33.0506 739.333 27.1139 739.971 21.1771 740.607C7.23052 742.106 -7.3482 742.272 -20.9917 745.964L-83.7559 762.951C-96.5931 766.425 -111.347 768.34 -123.521 774.05C-141.688 782.572 -159.019 795.05 -176.403 805.333C-184.807 810.305 -193.213 815.278 -201.619 820.25C-205.724 822.679 -208.534 822.712 -213.344 823.118L-248.059 826.045C-253.659 826.517 -256.348 828.989 -257.082 822.846L-265.151 755.313L-269.416 719.603C-269.67 717.479 -269.595 706.958 -271.183 705.688C-272.179 704.892 -278.023 706.606 -279.104 706.752L-294.861 708.867C-306.209 710.39 -317.556 711.913 -328.905 713.436C-329.826 713.559 -334.928 713.495 -335.501 714.321C-336.171 715.29 -334.896 720.841 -334.781 722.036C-333.577 734.576 -332.372 747.116 -331.169 759.656C-331.028 761.11 -329.417 767.853 -330.266 769.047C-330.856 769.875 -335.132 769.976 -336 770.131C-346.947 772.09 -357.893 774.048 -368.84 776.008C-376.68 777.411 -386.925 777.34 -394.337 780.571C-398.593 782.427 -402.803 787.171 -406.48 790.136L-459.869 833.2C-467.967 839.73 -478.881 838.067 -488.742 838.89L-602.494 848.39C-602.399 844.507 -602.304 840.624 -602.21 836.739C-601.709 816.172 -601.21 795.604 -600.709 775.037L-600.054 748.136C-600.013 746.433 -600.633 741.451 -599.618 740.193C-598.269 738.523 -592.238 737.799 -590.366 737.191C-584.087 735.153 -577.81 733.117 -571.533 731.081C-553.115 725.105 -534.699 719.129 -516.283 713.155C-498.08 707.249 -479.88 701.343 -461.679 695.438C-455.451 693.417 -449.224 691.396 -442.997 689.376C-441.559 688.909 -436.534 688.288 -435.534 686.955C-434.274 685.275 -434.837 678.107 -434.636 675.977C-433.648 665.585 -432.239 655.24 -430.524 644.964C-418.15 570.842 -389.228 495.552 -335.603 446.103C-300.155 413.416 -255.69 395.344 -209.704 391.335ZM-201.202 539.976C-205.974 533.834 -213.991 523.816 -222.421 525.479C-229.272 526.831 -233.006 536.141 -235.394 542.33C-244.993 567.206 -247.97 595.721 -250.955 622.307C-252.828 638.988 -254.335 655.744 -255.299 672.519C-221.105 669.635 -186.911 666.752 -152.718 663.869C-154.331 651.926 -155.625 639.872 -157.568 627.987C-158.542 622.03 -161.236 616.666 -163.538 611.162C-173.838 586.546 -185.081 560.724 -201.202 539.976Z" fill="#FFFB00"/>
<path fill-rule="evenodd" clip-rule="evenodd" d="M273.461 55.0248L274.297 55.0407C296.989 55.7024 317 71.7082 332.52 88.6473C340.195 97.0228 347.193 106.875 350.487 118.338C354.29 131.581 353.038 146.147 350.145 159.438C343.753 188.81 335.94 218.332 327.155 246.957C322.832 261.038 316.564 274.845 313.301 289.257C310.612 301.131 321.938 309.78 322.372 321.982C322.809 334.291 315.253 345.855 304.871 350.254C300.449 352.128 295.099 350.563 291.022 352.483C287.294 354.238 285.989 359.418 285.273 363.394C284.297 368.817 284.473 374.236 284.75 379.707C284.92 383.054 284.159 388.516 285.649 391.501C286.672 393.552 288.536 394.222 290.143 395.625C292.334 397.539 293.795 399.922 295.717 402.122C298.885 405.754 301.933 407.721 302.794 413.018C303.252 411.814 303.71 410.611 304.167 409.409C306.529 414.145 308.279 416.416 306.033 420.911C313.001 420.161 317.129 434.016 318.956 439.271C322.301 448.887 324.598 458.879 327.951 468.5C332.546 481.692 338.583 494.709 341.516 508.512C343.978 520.113 345.928 532.028 348.117 543.71C349.35 550.286 350.425 556.968 352.681 563.239C353.558 565.674 355.186 567.313 356.195 569.484C357.574 572.455 357.035 574.024 357.101 577.278C357.217 583.078 360.555 586.844 361.606 592.479C362.727 598.499 363.643 604.586 364.774 610.619C367.053 622.77 371.276 634.904 372.292 647.212C373.473 661.504 376.005 675.62 377.278 689.917C378.393 702.408 376.499 715.819 378.879 727.904C380.99 738.63 378.373 748.437 377.442 759.087C377.206 761.79 381.005 777.888 374.899 774.797C376.046 778.592 377.654 780.401 377.74 784.564C377.82 788.458 376.904 792.462 376.156 796.237C374.711 803.534 373.749 811.486 370.918 818.322C367.718 826.054 362.84 826.98 356.209 829.633C351.72 831.429 343.637 837.837 340.099 830.982C337.99 838.02 333.872 833.155 329.257 832.762C329.287 832.764 326.615 833.847 326.114 833.922C324.491 834.161 322.573 833.322 320.958 833.175C316.932 832.809 312.981 833.399 309.043 834.292C299.967 836.354 291.187 839.205 281.978 840.641C263.988 843.447 246.359 842.121 228.343 843.349C193.086 845.752 157.247 843.735 121.963 842.695C118.175 842.583 114.094 843.164 110.356 842.526C106.327 841.838 105.449 839.748 102.31 837.655C97.0921 834.179 91.3024 837.56 85.8894 838.83C69.9961 842.559 53.3985 842.835 37.3788 846.442C4.83107 853.768 -25.1572 868.227 -56.3336 880.423C-69.8493 885.71 -85.7128 894.273 -100.288 894.645C-117.951 895.063 -113.779 875.993 -110.533 863.734C-120.739 866.704 -136.765 880.273 -147.138 872.398C-159.501 863.015 -143.771 847.415 -143.031 836.385C-165.125 841.412 -190.188 852.438 -212.614 843.475C-216.929 841.752 -220.684 838.106 -225.317 837.514C-230.133 836.897 -235.223 838.762 -240.092 838.73C-251.184 838.652 -261.954 837.034 -273.042 838.532C-297.763 841.869 -322.133 843.696 -347.054 844.416C-372.143 845.14 -397.233 846.769 -422.333 846.701C-435.073 846.665 -448.05 845.01 -460.765 845.752C-465.757 846.043 -476.502 850.018 -480.009 844.457C-483.531 849.085 -486.523 845.992 -491.04 846.506C-490.203 846.411 -493.394 848.433 -493.873 848.628C-496.248 849.595 -498.469 849.301 -500.948 849.273C-507.553 849.199 -513.723 852.587 -520.295 852.259C-521.956 852.177 -523.213 851.647 -524.623 851.022C-524.957 850.874 -524.877 849.298 -525.412 849.167C-528.627 848.378 -527.796 850.536 -529.837 851.625C-532.1 852.829 -535.447 850.879 -534.16 854.587C-540.299 854.291 -546.116 856.56 -551.702 852.569C-549.061 858.966 -558.286 853.652 -560.697 853.548C-564.704 853.371 -568.213 855.567 -572.21 856.073C-577.002 856.678 -581.818 854.242 -586.507 855.729C-590.181 856.893 -591.439 859.695 -595.263 858.262C-598.511 857.046 -600.54 854.403 -602.117 851.514C-604.292 847.528 -604.57 845.749 -609.816 845.678C-613.705 845.626 -617.615 846.544 -621.542 846.535C-626.042 846.525 -630.986 846.002 -635.094 848.347C-639.519 850.872 -642.118 854.717 -647.026 856.695C-669.093 865.59 -693.317 863.235 -716.342 863.084C-726.056 863.02 -733.185 863.999 -735.912 851.854C-738.216 841.592 -739.139 830.86 -741.338 820.514C-744.031 807.837 -746.992 796.074 -752.969 784.741C-758.766 773.749 -763.644 762.394 -768.692 750.977C-779.19 727.232 -793.804 707.03 -810.097 687.733C-816.286 680.401 -823.38 672.234 -823.668 661.676C-823.88 652.56 -820.216 643.115 -815.41 635.853C-811.12 629.371 -804.05 622.058 -796.053 623.57C-791.238 624.481 -788.081 628.739 -784.487 631.933C-780.559 635.423 -776.28 637.801 -771.545 639.705C-760.505 644.143 -751.247 649.001 -741.686 656.662C-732.012 664.415 -722.969 673.098 -714.603 682.5C-698.543 700.55 -682.088 719.302 -672.86 742.675C-669.223 751.884 -666.9 760.764 -664.42 770.312C-661.985 779.687 -655.354 777.103 -647.898 775.756C-638.811 774.113 -629.678 773.232 -620.531 772.191C-617.088 771.799 -612.233 771.683 -610.16 768.117C-607.874 764.184 -610.493 759.09 -610.701 755.01C-610.812 752.831 -610.152 751.225 -609.987 749.099C-609.798 746.683 -610.449 744.475 -610.452 742.069C-610.454 736.893 -608.244 732.283 -604.572 729.148C-597.7 723.28 -587.676 719.782 -579.54 716.553C-568.431 712.144 -556.528 709.978 -545.088 706.832C-532.207 703.288 -519.248 700.095 -506.298 696.877C-493.573 693.715 -480.867 690.462 -468.006 688.027C-460.461 686.599 -452.277 687.121 -444.964 684.511C-437.192 681.736 -438.48 673.164 -438.504 665.569C-438.541 653.026 -437.125 640.113 -435.449 627.713C-431.883 601.352 -423.39 575.554 -415.669 550.363C-408.23 526.1 -399.016 502.813 -383.803 483.124C-368.995 463.956 -350.82 446.61 -331.966 432.366C-312.321 417.524 -290.461 406.801 -269.955 393.552C-274.437 389.795 -279.782 386.589 -282.357 380.802C-285.265 374.271 -284.033 366.461 -283.909 359.48C-283.77 351.601 -283.551 344.684 -280.983 337.179C-279.579 333.068 -274.148 325.271 -274.98 320.801C-276.374 313.295 -291.354 307.813 -296.87 304.724C-305.521 299.88 -314.189 294.959 -322.161 288.843C-329.813 282.976 -337.011 275.914 -341.646 266.908C-342.961 264.353 -344.043 261.669 -344.883 258.883C-345.818 255.775 -345.164 254.716 -347.998 254.489C-352.523 254.124 -359.306 259.101 -363.118 261.3C-382.771 272.637 -404.356 287.893 -427.546 286.88C-435.96 286.514 -445.418 283.617 -448.393 273.998C-452.31 261.335 -444.132 248.254 -436.957 239.108C-450.953 241.519 -476.761 249.054 -487.805 235.366C-495.165 226.245 -489.614 211.768 -483.442 203.859C-475.288 193.412 -463.663 187.052 -452.925 180.404C-466.101 174.898 -480.688 171.377 -492.275 162.163C-503.358 153.352 -501.988 139.815 -493.235 129.422C-483.877 118.311 -467.514 112.621 -454.645 108.496C-438.86 103.437 -423.178 103.843 -406.912 104.182C-377.718 104.79 -352.641 116.586 -328.697 134.42C-316.036 143.851 -303.558 154.028 -292.329 165.449C-281.797 176.161 -270.562 186.121 -260.185 196.949C-250.131 207.44 -242.222 220.438 -231.61 230.239C-222.586 238.572 -212.693 250.384 -201.229 254.083C-189.073 258.005 -178.131 264.493 -165.872 268.355C-151.965 272.734 -140.02 280.058 -127.132 287.044C-73.0473 316.366 -14.9865 335.449 42.0333 356.5C71.1985 367.267 100.557 374.856 130.333 383.079C145.285 387.208 159.17 389.411 174.6 388.665C178.158 388.494 181.556 388.392 185.065 388.933C187.637 389.329 189.593 390.395 191.893 388.71C195.198 386.289 196.441 379.988 198.41 376.4C187.43 372.669 176.68 368.632 171.669 356.297C168.513 348.524 166.874 339.458 165.49 331.118C164.747 326.63 164.73 322.1 164.095 317.609C163.747 315.129 162.671 312.537 162.754 310.003C162.507 311.413 154.325 306.776 153.138 305.915C148.56 302.591 147.726 295.889 147.764 290.233C147.807 283.844 149.567 276.822 153.525 271.978C155.398 269.684 157.627 267.965 160.35 267.101C162.283 266.487 164.832 267.29 166.536 266.672C174.096 263.933 174.942 243.428 176.014 235.963C178.377 219.515 180.732 203.811 185.833 188.045C195.132 159.299 207.102 131.363 221.358 105.192C233.573 82.7657 245.777 55.3446 272.634 55.0248H273.461ZM41.2838 745.54C30.4126 747.603 19.9981 751.817 9.49717 755.39C-0.309703 758.728 -10.2495 760.853 -20.3105 763.022C-40.3332 767.341 -60.7957 771.293 -80.5282 776.922C-86.0844 778.508 -89.0077 782.085 -93.8556 784.572C-97.4497 786.416 -100.823 784.548 -104.562 784.391C-112.7 784.051 -121.731 786.961 -129.559 789.13C-148.039 794.248 -164.435 803.136 -181.158 812.963C-182.654 813.841 -192.772 818.916 -192.292 821.017C-191.902 822.732 -179.041 818.127 -176.995 817.786C-166.638 816.057 -156.522 812.478 -146.241 810.255C-137.803 808.429 -129.27 807.193 -120.868 805.167C-111.518 802.913 -91.5993 795.073 -90.8072 812.001C-89.9519 830.296 -108.383 835.923 -119.462 844.457C-118.227 846.791 -100.453 839.093 -98.2494 838.315C-90.6911 835.644 -83.6798 830.829 -75.9847 828.779C-62.5967 825.211 -64.2183 841.419 -71.6089 848.629C-79.8213 856.639 -93.4028 859.06 -97.9501 871.386C-91.9786 873.747 -84.1713 869.313 -78.686 867.108C-71.4824 864.214 -64.2518 861.363 -57.0043 858.603C-40.7356 852.406 -25.2836 843.87 -8.92848 837.966C24.628 825.856 60.0977 822.383 95.1764 820.231C92.0507 806.94 88.6321 793.727 85.8236 780.349C84.6213 774.623 83.5209 768.871 82.6101 763.08C81.9767 759.053 82.516 749.416 79.9849 746.24C76.903 742.371 68.8764 747.805 64.5083 747.702C60.2293 747.6 57.1074 745.179 53.1534 744.416C49.3994 743.692 44.9565 744.843 41.2838 745.54ZM-589.229 822.474C-589.229 828.827 -590.234 836.534 -582.61 837.276C-576.444 837.877 -564.38 838.649 -559.462 833.843C-564.175 831.324 -569.533 830.884 -574.54 829.432C-579.756 827.918 -584.573 825.432 -589.229 822.474ZM-463.391 706.71C-465.711 706.728 -469.623 709.555 -471.739 710.344C-475.61 711.786 -479.545 713.004 -483.498 714.151C-495.374 717.598 -510.665 718.136 -516.118 732.109C-518.84 739.083 -520.727 757.018 -530.185 756.953C-538.593 756.894 -543.628 743.593 -549.625 738.86C-555.824 733.97 -565.651 737.299 -572.336 739.423C-579.13 741.579 -589.672 744.347 -588.909 753.784C-588.361 760.569 -587.244 766.744 -587.297 773.674C-587.363 782.497 -588.042 791.301 -588.042 800.123C-583.273 792.961 -579.113 778.561 -570.663 775.681C-562.127 772.771 -557.298 789.119 -555.078 795.384C-552.326 803.148 -548.868 811.952 -548.657 820.365C-548.592 823.007 -550.055 830.264 -548.379 832.436C-546.891 834.364 -541.17 832.966 -539.321 832.755C-527.88 831.45 -516.499 829.825 -505.022 828.736C-499.128 828.178 -497.523 826.76 -498.1 819.809C-498.552 814.351 -498.693 809.149 -498.069 803.669C-495.282 779.205 -481.538 756.826 -458.299 752.578C-444.296 750.017 -427.942 751.889 -413.962 754.348C-408.573 755.296 -402.723 758.156 -397.248 757.907C-393.204 757.724 -394.507 757.472 -393.679 753.299C-393.099 750.382 -391.86 747.893 -389.836 745.871C-388.236 744.273 -386.205 745.175 -384.697 743.087C-383.606 741.575 -383.77 739.516 -383.255 737.774C-382.25 734.385 -380.434 729.81 -376.818 728.955C-370.998 727.576 -364.813 736.117 -361.875 740.522C-358.841 745.076 -357.924 758.674 -353.044 760.454C-347.413 762.506 -340.714 754.416 -339.54 749.32C-337.961 742.465 -339.95 735.048 -340.901 728.259C-340.968 727.772 -341.245 723.262 -341.551 722.967C-342.373 722.174 -348.563 722.396 -349.66 722.337C-355.054 722.055 -360.456 722.041 -365.855 722.026C-387.021 721.968 -407.754 719.687 -428.779 717.255C-425.726 722.711 -420.497 731.671 -425.864 737.432C-429.841 741.7 -437.019 739.559 -442.014 740.438C-449.07 741.68 -460.966 749.02 -467.691 743.654C-477.167 736.088 -466.447 723.09 -462.928 715.941C-462.175 714.408 -459.38 709.015 -460.565 707.218C-461.59 705.661 -461.889 706.697 -463.391 706.71ZM-621.222 790.789C-626.061 792.406 -630.936 793.962 -635.88 795.161C-641.678 796.568 -650.67 795.202 -653.491 802.195C-655.638 807.511 -654.572 816.089 -652.828 821.385C-650.831 827.45 -646.144 829.009 -640.613 829.472C-634.157 830.012 -627.617 828.871 -621.238 827.904C-618.723 827.522 -616.043 826.833 -613.488 826.829C-611.973 826.825 -608.913 828.345 -607.565 827.102C-605.819 825.491 -606.969 816.342 -607.105 814.149C-607.445 808.718 -608.385 803.358 -608.642 797.918C-608.825 794.011 -607.481 788.702 -611.659 787.869C-614.261 787.35 -618.961 790.034 -621.222 790.789ZM-230.468 683.268C-234.084 683.953 -237.679 684.444 -241.352 684.383C-243.615 684.345 -246.324 683.502 -248.415 684.863C-252.277 687.375 -251.702 693.995 -251.571 698.125C-251.409 703.137 -251.009 708.223 -250.522 713.209C-250.056 717.977 -247.669 725.829 -251.04 729.915C-253.418 727.063 -254.591 717.737 -259.179 718.078C-264.225 718.451 -261.892 727.289 -261.445 730.453C-258.972 747.947 -256.153 765.45 -253.943 782.994C-252.893 791.335 -251.536 799.614 -250.833 807.995C-250.362 813.62 -250.203 818.685 -244.468 819.85C-239.153 820.931 -233.18 819.087 -227.807 818.945C-222.275 818.8 -219.107 818.388 -215.924 812.907C-223.544 811.079 -235.615 812.198 -239.909 803.363C-244.914 793.055 -234.356 783.782 -229.161 776.737C-225.174 771.327 -217.021 753.34 -209.618 764.023C-206.953 767.87 -206.472 773.739 -205.127 778.213C-202.937 785.483 -200.263 792.648 -197.639 799.738C-173.633 786.155 -149 773.909 -122.818 766.283C-129.493 753.917 -137.756 742.781 -142.752 729.377C-148.351 714.356 -152.988 698.924 -158.712 683.951C-167.788 689.757 -177.49 675.681 -186.527 675.114C-200.802 674.219 -216.472 680.609 -230.468 683.268ZM-372.672 784.539C-377.649 787.788 -384.97 794.107 -386.164 800.64C-388.228 811.935 -376.47 804.384 -372.839 801.912C-365.24 796.738 -357.794 795.085 -349.067 798.273C-337.874 802.361 -327.56 809.263 -315.547 804.02C-309.571 801.41 -296.313 795.833 -299.89 785.825C-302.357 778.927 -309.575 784.844 -313.389 787.317C-323.377 793.792 -331.647 789.69 -341.627 785.017C-351.608 780.342 -362.847 778.124 -372.672 784.539ZM-727.116 726.579C-731.112 732.787 -722.989 731.446 -719.424 732.051C-711.967 733.314 -704.288 739.832 -706.343 749.054C-708.346 758.046 -716.196 763.667 -717.691 773.106C-718.976 781.211 -717.738 791.47 -710.597 795.92C-706.587 798.419 -697.821 799.448 -693.784 796.578C-687.62 792.194 -695.276 785.667 -699.353 783.496C-704.757 780.619 -709.122 779.06 -706.447 771.501C-703.187 762.285 -696.856 755.214 -697.418 744.669C-697.883 735.933 -702.09 726.005 -709.754 722.375C-715.242 719.777 -723.374 720.763 -727.116 726.579ZM-181.602 699.798C-174.695 699.474 -174.42 708.623 -174.768 713.123C-175.244 719.275 -174.225 725.832 -174.108 732.005C-173.952 740.179 -172.391 766.95 -185.579 762.974C-194.06 760.417 -201.037 751.509 -207.855 745.785C-214.127 740.516 -230.072 734.197 -231.106 724.208C-232.272 712.925 -219.699 710.814 -212.496 709.02C-202.211 706.461 -192.226 700.299 -181.602 699.798ZM-215.248 402.435C-226.201 403.593 -237.092 405.376 -247.516 409.364C-254.569 412.062 -265.401 413.996 -270.4 420.617C-274.722 426.342 -272.848 434.504 -274.253 441.269C-276.154 450.421 -281.917 449.17 -287.507 443.455C-294.197 436.614 -296.132 431.661 -305.445 438.08C-324.725 451.37 -340.01 470.99 -355.304 489.166C-343.478 493.092 -320.279 494.042 -316.351 510.237C-314.205 519.092 -320.677 525.533 -326.492 530.365C-334.001 536.605 -341.84 542.376 -349.185 548.867C-356.039 554.923 -371.409 579.037 -375.756 557.836C-378.448 544.712 -373.404 531.15 -375.545 518.186C-384.843 534.62 -394.285 551.015 -402.811 567.952C-410.067 582.371 -414.287 597.795 -417.768 613.737C-412.342 614.126 -406.694 611.107 -401.33 612.89C-396.165 614.606 -393.747 619.963 -393.385 625.512C-392.768 634.919 -396.731 644.495 -398.725 653.53C-400.094 659.735 -401.665 673.817 -408.561 675.837C-416.419 678.137 -421.351 664.886 -424.855 659.501C-428.191 665.122 -428.136 673.345 -428.623 679.789C-428.957 684.219 -431.212 692.501 -426.666 694.951C-422.412 697.244 -413.441 694.371 -408.891 694.16C-400.449 693.767 -391.843 693.018 -383.398 693.291C-375.419 693.549 -363.68 698.224 -360.563 687.476C-358.441 680.158 -356.572 653.859 -345.253 668.127C-340.225 674.464 -336.293 681.687 -331.436 688.143C-326.536 694.655 -322.081 695.082 -314.764 694.753C-300.28 694.102 -286.136 697.151 -271.963 699.613C-259.527 701.772 -261.159 690.202 -261.344 679.902C-261.626 663.936 -258.738 647.24 -257.163 631.362C-253.417 593.605 -245.728 556.302 -233.9 520.592C-243.794 516.899 -261.532 531.8 -268.848 520.484C-274.862 511.18 -267.136 498.365 -263.991 489.668C-260.068 478.818 -258.084 467.483 -251.685 457.867C-249.666 454.831 -246.794 450.763 -242.885 451.786C-239.531 452.664 -238.194 457.353 -236.307 459.998C-230.316 468.395 -222.663 474.692 -217.338 483.851C-214.081 489.453 -211.547 495.441 -210.489 502.019C-210.198 503.827 -210.567 507.531 -209.406 509.048C-205.805 513.75 -194.462 513.68 -189.42 516.564C-172.209 526.41 -166.16 555.07 -159.476 573.142C-157.593 578.231 -155.726 583.333 -154.725 588.728C-154.057 592.334 -154.089 596.918 -152.305 600.152C-148.41 607.212 -136.309 600.907 -130.371 599.814C-120.419 597.981 -110.515 596.233 -100.523 594.695C-94.4258 593.757 -85.5516 591.335 -80.9062 597.256C-76.0905 603.394 -78.8602 613.062 -81.2777 619.648C-85.224 630.396 -90.2654 640.665 -94.4296 651.315C-97.7515 659.811 -99.4054 670.756 -105.788 677.302C-111.318 682.975 -120.468 684.601 -126.977 679.984C-130.693 677.35 -140.231 651.866 -142.748 653.004C-138.205 672.688 -131.543 692.759 -124.504 711.545C-122.344 717.315 -118.632 729.082 -113.171 732.211C-108.645 734.806 -98.3733 729.903 -93.7421 728.953C-89.3508 728.051 -80.6817 724.142 -76.4826 727.006C-71.3934 730.479 -70.773 739.741 -70.2015 745.491C-69.777 749.754 -70.5472 752.936 -65.8153 752.724C-62.4818 752.575 -59.1174 750.793 -55.9181 749.897C-48.4914 747.82 -40.7834 746.445 -33.2225 745.107C-15.736 742.012 1.74404 738.925 19.2228 735.752C34.2492 733.024 49.0794 733.04 62.6571 725.227C69.5395 721.268 77.4294 720.059 84.7581 717.41C92.0262 714.784 99.271 713.08 106.878 712.093C123.506 709.938 139.685 707.827 156.118 704.135C165.111 702.114 174.087 699.997 183.032 697.733C190.994 695.718 198.692 692.517 206.615 690.542C213.207 688.898 218.622 690.133 221.445 681.931C223.471 676.05 223 669.459 223.52 663.304C225.897 635.18 216.912 606.896 215.074 578.925C214.478 569.867 214.295 560.78 213.674 551.729C213.39 547.581 213.562 535.505 209.147 533.27C208.746 536.587 209.058 542.167 205.62 543.811C207.3 543.008 205.095 552.806 204.977 553.79C204.507 557.702 205.679 561.887 205.061 565.725C205.551 567.076 205.337 568.092 204.421 568.777C203.796 569.331 203.341 570.032 203.057 570.879C203.013 573.616 203.745 572.004 203.78 572.948C204.125 582.36 202.674 592.117 203.295 601.758C203.951 611.949 206.027 621.947 207.603 631.998C209.018 641.02 210.543 650.06 211.724 659.122C212.552 665.483 213.166 672.784 210.044 678.573C204.116 689.564 186.955 688.37 176.96 690.167C160.347 693.156 143.71 695.853 127.036 698.392C120.635 699.367 114.157 701.592 107.681 701.704C100.762 701.823 97.0599 698.76 92.6982 693.163C83.9105 681.889 78.2434 669.083 70.9237 656.819C66.8123 649.93 63.3925 648.114 56.4714 646.011C50.0431 644.058 44.8842 638.917 39.6544 634.641C28.6685 625.659 14.4819 615.892 7.27315 602.663C-0.313572 588.743 10.377 584.122 20.6134 580.324C18.1224 573.067 13.237 567.238 9.21206 560.995C4.6363 553.896 0.487569 546.524 -4.43909 539.692C-14.4808 525.768 -24.5109 511.916 -34.2558 497.731C-42.5856 485.609 -51.0044 474.125 -61.6356 464.304C-72.3132 454.44 -84.2009 446.356 -95.9261 438.097C-102.051 433.783 -112.804 422.761 -120.545 423.888C-128.055 424.982 -131.024 440.313 -132.9 446.757C-135.053 454.151 -135.813 464.461 -140.829 470.283C-148.2 478.838 -155.854 465.362 -159.371 459.151C-165.813 447.775 -172.405 436.501 -178.837 425.115C-181.768 419.924 -186.002 414.985 -187.742 409.099C-187.763 409.029 -188.577 403.968 -187.755 404.676L-187.699 404.732L-187.755 404.664C-189.594 402.667 -196.39 402.252 -198.93 402.011L-199.163 401.988C-204.509 401.435 -209.918 401.871 -215.248 402.435ZM-287.045 721.426C-293.203 721.385 -299.342 722.17 -305.471 722.72C-310.854 723.202 -315.789 722.3 -321.163 721.945C-327.812 721.507 -331.1 722.27 -329.569 729.797C-328.456 735.274 -327.118 742.569 -321.987 744.884C-315.057 748.012 -305.723 747.59 -298.338 748.775C-292.918 749.645 -287.511 750.43 -282.114 751.421C-278.528 752.08 -276.688 752.769 -275.009 748.316C-273.606 744.584 -274.51 739.598 -274.989 735.743C-275.358 732.785 -275.137 727.583 -276.412 724.951C-278.314 721.023 -283.299 721.452 -287.045 721.426ZM0.00778079 646.37C9.05353 655.434 15.1412 667.022 21.972 678.012C26.1427 684.722 34.3021 695.419 28.377 703.554C23.3291 710.489 11.591 708.902 4.52937 709.236C-6.56754 709.761 -15.6314 715.257 -26.1916 718.092C-52.7884 725.233 -30.699 676.229 -27.0147 666.002C-24.4295 658.827 -21.763 651.685 -18.6359 644.769C-17.2259 641.651 -14.4123 632.558 -10.906 631.368C-5.82322 629.641 -3.20958 643.145 0.00778079 646.37ZM-228.511 543.336C-232.739 552.194 -233.425 564.454 -235.43 574.127C-241.556 603.707 -245.138 633.832 -247.955 663.98C-233.946 657.889 -219.16 657.468 -204.368 655.978C-193.652 654.897 -183.811 653.66 -173.092 654.162C-171.266 654.247 -166.011 655.264 -164.506 653.561C-162.484 651.276 -164.933 644.9 -165.53 642.496C-168.778 629.44 -170.207 615.948 -173.899 602.973C-177.663 589.74 -182.239 576.526 -187.107 563.733C-190.668 554.376 -195.558 545.251 -204.187 540.662C-211.742 536.646 -223.822 533.511 -228.511 543.336ZM-286.203 600.905C-280.431 610.443 -273.121 618.786 -267.483 628.413C-263.487 635.242 -258.806 647.872 -268.407 652.213C-271.776 653.736 -275.755 653.077 -279.286 653.145C-284.746 653.248 -290.154 653.763 -295.624 653.62C-300.797 653.484 -305.921 652.797 -311.081 652.502C-314.334 652.316 -318.419 652.591 -321.284 650.543C-328.964 645.052 -323.41 633.84 -320.937 626.667C-318.311 619.046 -314.764 611.84 -311.342 604.619C-308.97 599.61 -305.422 589.405 -300.026 587.363C-293.635 584.945 -288.866 596.506 -286.203 600.905ZM-6.33029 492.839C6.35466 509.007 17.3689 526.643 27.7409 544.656C32.803 553.445 37.7181 562.338 42.6254 571.233C45.8363 577.053 48.2474 584.498 52.1588 589.77C61.082 601.794 63.564 575.558 64.8785 569.856C69.7304 548.827 75.7381 527.968 81.0828 507.071L75.6047 507.071C53.7704 507.059 32.8376 506.704 11.5793 499.653C5.56128 497.658 0.0747521 493.327 -6.33029 492.839ZM-52.4479 496.915C-45.5411 502.506 -1.33015 535.334 -19.9274 548.001C-23.7755 550.623 -30.0645 549.434 -34.4132 549.81C-39.9862 550.292 -45.6468 550.883 -51.1527 551.965C-58.2802 553.367 -65.2051 555.812 -72.3661 557.051C-78.0591 558.037 -85.6032 559.186 -90.6898 555.3C-99.0802 548.889 -93.9872 536.298 -91.2174 528.148C-87.2789 516.566 -83.5495 501.063 -73.78 494.165C-71.507 492.56 -68.7218 486.829 -66.2758 486.304C-62.4457 485.481 -55.2499 494.649 -52.4479 496.915ZM191.467 224.611C188.134 227.406 187.982 233.213 187.117 237.311C184.21 251.095 180.151 264.513 177.743 278.444C175.395 292.032 174.657 305.409 175.809 319.179C176.578 328.363 176.667 339.665 181.76 347.486C187.855 356.844 199.925 356.365 209.053 359.136C217.836 361.803 226.544 370.063 216.964 378.649C213.559 381.699 209.089 382.195 205.724 385.134C201.572 388.761 199.188 395.26 197.425 400.574C195.972 404.949 196.015 405.785 200.353 407.33C202.335 408.036 204.337 408.484 206.422 408.295C211.169 407.862 215.404 404.426 219.379 401.844C229.516 395.258 241.224 386.467 253.327 385.473C257.196 385.156 261.594 386.891 265.356 385.514C268.861 384.229 267.785 383.443 268.394 379.869C270.805 365.706 271.784 351.804 278.372 338.991C281.624 332.669 290.221 319.736 295.984 329.579C298.39 333.69 299.261 335.698 304.599 334.437C308.942 333.412 313.714 329.646 312.852 324.147C312.041 318.958 305.817 315.426 302.044 313.152C297.02 310.126 293.497 310.475 288.026 309.759C272.993 307.789 283.532 283.689 285.7 274.646C287.062 268.963 288.655 261.617 285.079 256.485C279.636 248.68 267.78 251.246 260.31 252.353C249.981 253.885 238.705 254.701 229.037 249.562C218.81 244.126 214.451 231.866 204.861 225.906C201.317 223.703 195.108 221.554 191.467 224.611ZM236.352 324.17C243.459 324.066 240.004 335.173 238.059 338.908C233.959 346.784 225.178 349.83 217.467 346.926C211.368 344.628 204.77 334.477 214.323 332.795C218.904 331.989 223.439 332.317 227.78 329.928C230.253 328.568 233.449 324.213 236.352 324.17ZM218.522 265.106C222.938 268.044 215.402 286.811 214.132 290.61C212.066 296.809 210.226 300.811 215.484 305.589C219.14 308.912 226.352 311.78 222.909 318.402C219.722 324.529 208.789 321.959 204.344 318.962C197.882 314.602 199.786 306.252 201.211 299.399C202.143 294.91 210.66 259.874 218.522 265.106ZM-476.806 141.881C-463.189 148.257 -449.264 154.017 -434.855 157.859C-422.263 161.217 -409.882 164.838 -396.904 164.049C-384.897 163.321 -383.465 176.25 -390.323 185.204C-394.049 190.068 -398.372 189.946 -403.802 190.135C-410.158 190.355 -415.931 192.288 -422.061 194.019C-431.397 196.655 -440.849 198.893 -449.896 202.614C-454.565 204.534 -459.171 206.792 -463.336 209.827C-465.953 211.736 -471.794 215.175 -468.705 217.842C-464.239 221.695 -450.982 216.416 -445.667 216.068C-433.292 215.26 -420.941 214.035 -408.635 212.337C-402.608 211.504 -396.137 210.681 -390.429 208.281C-386.694 206.712 -382.56 202.814 -378.331 203.804C-369.409 205.893 -373.83 220.554 -377.881 225.323C-383.896 232.407 -393.028 235.534 -400.798 239.559C-406.229 242.373 -411.627 245.352 -416.901 248.501C-419.392 249.989 -431.002 255.562 -430.634 259.793C-430.249 264.24 -421.084 261.997 -418.818 261.593C-403.691 258.896 -390.041 252.485 -376.064 245.924C-369.947 243.052 -363.743 240.296 -357.754 237.111C-353.57 234.885 -349.457 231.494 -344.835 230.483C-333.937 228.098 -334.414 241.44 -330.124 248.647C-317.37 270.067 -292.729 279.205 -273.557 291.584C-266.304 296.266 -259.386 301.657 -252.73 307.298C-247.976 311.325 -246.076 316.868 -240.768 311.557C-236.344 307.13 -234.211 300.636 -231.375 295.006C-228.074 288.45 -223.664 282.662 -220.281 276.16C-215.28 266.555 -213.783 257.393 -224.764 253.858C-236.291 250.147 -245.414 244.614 -255.212 236.719C-279.257 217.344 -299.209 192.602 -323.184 173.078C-345.396 154.989 -368.95 138.015 -396.795 133.158C-423.187 128.552 -452.142 129.686 -476.806 141.881ZM243.568 281.015C243.005 286.349 241.806 297.725 235.046 298.15C226.837 298.666 232.35 271.328 237.001 268.251C244.447 263.325 244.046 276.495 243.568 281.015ZM167.176 278.837C156.928 279.768 154.007 292.071 164.25 296.428L167.176 278.837ZM205.174 268.039C203.859 273.623 204.327 282.584 200.239 286.87C194.476 292.909 191.967 284.046 192.01 278.992C192.051 273.993 194.311 261.49 200.414 260.831C205.629 260.268 201.289 266.895 205.174 268.039ZM315.772 143.801C312.025 152.347 316.053 160.78 318.295 169.18C313.696 170.804 307.499 169.575 304.69 174.904C302.92 178.262 303.229 183.319 303.759 186.956C304.194 189.939 306.425 193.957 304.568 196.725C302.136 200.35 296.1 198.674 293.418 202.706C289.341 208.837 291.629 222.842 297.349 227.457C305.388 233.941 300.591 218.03 300.099 215.132C298.866 207.874 305.726 208.861 310.412 205.93C312.926 204.357 313.375 204.053 313.951 200.696C314.484 197.604 314.202 195.15 313.53 191.817C311.249 180.509 315.236 182.356 323.432 179.864C330.501 177.713 329.935 171.521 328.139 165.012C326.731 159.91 322.532 151.541 327.08 147.191C328.885 145.464 331.626 146.556 332.016 142.953C332.279 140.521 329.302 136.533 327.738 135.135C322.35 130.313 317.962 138.804 315.772 143.801Z" fill="black"/>
</g>
</g>
<defs>
<clipPath id="clip0_181_10">
<rect width="500" height="500" rx="250" fill="white"/>
</clipPath>
<clipPath id="clip1_181_10">
<rect width="1321" height="1086" fill="white" transform="translate(-883 -68)"/>
</clipPath>
</defs>
</svg>
