<svg width="500" height="500" viewBox="0 0 500 500" fill="none" xmlns="http://www.w3.org/2000/svg">
<g clip-path="url(#clip0_181_11)">
<rect width="500" height="500" rx="250" fill="white"/>
<g clip-path="url(#clip1_181_11)">
<path fill-rule="evenodd" clip-rule="evenodd" d="M352.082 608.93C336.617 638.437 320.279 667.159 303.783 696.128C295.048 711.463 266.883 774.893 259.609 777.316C251.776 779.925 203.791 752.388 190.019 746.994C165.547 737.407 142.293 728.331 116.73 722.42C88.1063 715.8 59.2552 710.92 29.564 713.381C16.5606 714.46 -4.96364 717.528 7.96067 699.7C17.382 686.699 26.5078 674.728 39.3045 665.337C48.6185 658.5 62.2705 645.959 73.1752 641.392C84.6161 636.6 101.49 637.662 113.787 637.944C127.078 638.251 190.436 657.543 193.921 637.435C200.383 643.173 204.147 640.954 211.551 643.756C219.898 646.915 225.101 653.046 233.389 656.75C238.766 659.153 248.677 668.654 254.654 668.711C262.6 668.787 264.739 662.366 270.446 657.626C283.23 647.004 300.252 640.013 314.124 630.785C326.338 622.656 337.968 614.183 352.082 608.93ZM212.89 375.695C211.803 389.165 215.528 401.682 215.438 415.542C215.4 421.59 215.119 427.636 217 433.463C218.69 438.686 217.509 448.071 218.406 453.54C202.596 448.843 173.222 441.877 157.079 448.211C141.647 454.267 139.706 482.269 139.162 495.888C138.791 505.17 143.014 519.47 139.814 528.357C138.321 532.502 138.308 533.84 138.402 534.213L138.414 534.253C138.109 534.1 136.87 534.103 132.5 537.18C128.167 540.227 122.996 541.909 118.714 545.275C110.928 551.405 109.593 558.352 105.751 567.236C102.019 575.865 92.0762 583.535 80.9769 583.222C89.8983 567.442 102.287 552.704 95.1779 534.169C89.8148 520.18 99.215 503.763 106.61 490.475C109.059 486.073 136.202 452.355 124.174 449.978C116.365 448.433 98.4392 484.225 95.0086 490.475C85.4431 484.163 81.1473 476.384 88.5093 466.878C94.1638 459.578 101.107 453.336 106.61 445.778C115.547 433.51 124.256 418.868 134.87 407.971C153.51 388.838 186.049 375.812 212.89 375.695ZM138.414 534.253C138.518 534.323 138.474 534.39 138.427 534.287L138.414 534.253ZM463.398 354.79C475.309 365.926 490.375 375.162 501.886 386.849C511.962 397.08 525.53 414.289 530.316 427.957C505.756 432.576 464.948 446.726 455.168 471.88C416.971 437.66 402.194 500.22 394.615 526.38C372.26 516.94 376.718 485.512 377.014 467.163C377.244 452.607 386.329 435.378 364.671 434.186C348.487 433.298 332.769 439.73 318.172 445.753C299.958 453.269 280.852 464.513 266.14 477.427L250.812 465.782C275.957 452.005 289.064 425.664 303.783 401.544C308.478 393.854 314.749 385.304 318.172 376.992C320.541 371.244 322.208 359.642 324.804 354.532C328.889 346.498 368.784 344.286 379.352 342.215C407.252 336.75 440.599 333.474 463.398 354.79Z" fill="#00FFFF"/>
<path fill-rule="evenodd" clip-rule="evenodd" d="M457.04 533.334C467.346 532.82 477.606 535.066 487.912 534.087C478.964 526.481 470.018 518.878 461.07 511.274C457.116 518.048 456.829 525.753 457.04 533.334ZM212.541 376.992C185.866 377.106 153.329 390.181 134.798 409.277C124.981 419.398 116.868 432.987 108.564 444.358C102.996 451.986 97.558 459.349 90.7978 466.053C80.9402 475.823 83.7625 478.057 94.8682 485.415C98.3833 478.986 117.021 444.619 124.833 446.164C136.703 448.515 113.779 484.818 111.275 489.341C103.86 502.721 91.8854 521.412 97.2651 535.524C104.364 554.152 94.0709 564.77 85.1328 580.643C94.5192 580.909 95.4439 577.336 98.6788 569.523C102.833 559.482 107.367 551.093 116.153 544.151C122.956 538.776 134.085 536.513 137.281 530.022C141.235 521.999 138.754 506.155 139.075 497.23C139.561 483.668 139.597 451.606 154.91 445.581C170.955 439.267 199.805 445.218 215.49 449.894C213.531 437.942 207.355 430.135 207.439 416.853C207.53 402.951 211.453 390.547 212.541 376.992ZM7.61942 598.795C21.5729 594.483 34.8004 589.941 49.1564 587.004C64.1797 583.928 65.1833 580.409 73.6527 567.836C80.0716 558.307 87.8609 550.877 86.0422 539.206C84.8756 531.719 80.6753 528.072 81.9387 519.653C82.7207 514.435 85.2169 508.737 87.0203 503.775C89.2313 497.687 93.8137 490.782 83.1588 490.481C77.2748 490.315 76.987 493.344 73.0057 498.43C65.6571 507.825 57.2004 516.356 49.3806 525.366C35.799 541.01 21.3972 557.658 6.2363 572.137C-10.4529 588.07 -24.8572 607.288 -35.6446 627.686C-37.6365 631.453 -49.7508 653.64 -44.5826 657.99C-39.8372 661.986 -13.4407 652.668 -8.62654 651.577C12.1483 646.871 35.7301 645.191 55.3588 636.643C65.359 632.287 87.4278 627.089 95.3267 620.35C102.67 614.086 102.339 598.911 98.0776 590.08C86.1517 597.321 -0.0679892 624.639 7.61942 598.795ZM267.195 474.278C281.118 462.005 297.576 452.16 314.767 444.865C330.144 438.34 349.245 431.067 366.352 432.2C387.667 433.609 378.76 450.364 378.683 464.632C378.584 483.563 370.082 510.837 393.246 520.659C400.808 494.445 416.746 432.456 454.928 466.806C464.687 441.6 499.489 433.069 523.995 428.44C519.553 415.705 506.061 404.178 496.71 394.619C485.011 382.662 475.774 368.648 464.055 356.917C440.901 333.751 398.956 341.191 369.643 346.965C359.86 348.891 331.494 351.311 326.754 358.324C323.781 362.722 325.442 373.466 323.239 378.843C320.203 386.253 315.016 393.121 310.854 399.964C295.671 424.934 280.224 450.066 254.241 464.363L267.195 474.278ZM352.165 608.798C338.417 613.947 328.305 622.554 316.112 629.803C301.328 638.591 283.992 646.824 270.723 657.68C265.868 661.651 263.14 668.509 256.439 668.954C250.611 669.341 241.729 662.734 236.561 660.423C227.893 656.539 219.612 650.655 210.9 647.194C203.74 644.349 200.571 644.93 194.377 639.399C190.902 659.581 127.691 640.716 114.431 640.408C102.163 640.125 85.3315 641.543 73.9151 646.354C63.036 650.939 54.531 661.029 45.2185 667.905C32.4545 677.332 20.2738 686.867 10.8747 699.917C-2.01915 717.81 17.4337 712.746 30.4066 711.665C60.0176 709.195 88.8212 716.078 117.368 722.72C142.883 728.656 168.082 735.778 192.507 745.404C206.244 750.818 220.702 755.796 233.621 762.833C240.432 766.545 251.479 775.629 259.294 773.01C266.462 770.61 273.604 750.56 277.95 742.551C286.389 727.006 295.266 711.722 303.98 696.329C320.437 667.251 336.739 638.418 352.165 608.798ZM182.998 993.64C191.47 988.892 205.281 990.171 214.65 988.181C225.236 985.932 235.881 982.27 245.975 978.45C256.197 974.584 265.856 970.628 275.196 965.79C279.468 963.579 285.161 961.4 289.109 958.331C292.29 955.856 293.449 951.259 296.384 949.015C304.036 943.159 306.285 946.834 307.311 935.535C308.424 923.263 301.369 916.313 292.586 907.129C284.723 898.909 274.509 891.805 264.628 886.023C260.257 883.466 255.588 880.588 251.128 878.148C244.38 874.451 235.338 868.306 231.797 876.24C239.171 878.076 240.797 887.267 234.141 890.57C230.486 892.384 224.953 889.72 220.832 891.648C214.469 894.625 208.348 902.932 202.902 907.404C185.026 922.092 167.929 927.599 144.531 928.779C95.64 931.239 44.4416 925.797 -3.50923 918.725C-15.8503 916.904 -28.1711 918.877 -40.6268 918.442C-52.7463 918.02 -65.3829 915.433 -77.2961 913.435C-100.244 909.589 -124.432 906.423 -147.023 900.763C-174.344 893.917 -201.759 885.061 -227.409 873.593C-252.015 862.591 -279.825 844.412 -307.462 843.01C-295.669 854.279 -277.997 858.62 -263.811 866.042C-252.217 872.105 -234.086 875.999 -226.76 885.99C-221.992 892.493 -219.6 904.438 -215.998 912.063C-212.014 920.502 -208.339 929.075 -204.65 937.64C-200.947 946.257 -197.088 954.879 -194.08 963.755C-192.218 969.262 -191.415 980.677 -187.016 984.444C-179.999 990.452 -156.511 993.118 -147.053 995.116C-129.396 998.851 -109.256 998.354 -91.2445 998.612C-83.8017 998.719 -76.3002 999.711 -69.1884 999.845C-59.2009 1000.03 -60.1536 998.344 -60.2962 989.883C-60.3777 984.802 -60.2733 975.561 -53.3093 979.745C-48.5638 982.598 -51.8294 995.228 -52.7082 999.716C-12.9542 1003.58 28.5242 1005.52 68.0897 1004.23C107 1002.96 144.564 998.061 182.998 993.64ZM362.532 904.584C369.547 855.427 378.095 805.45 387.662 756.929C397.331 707.898 408.957 659.312 422.034 610.466C413.396 608.448 404.759 606.435 396.121 604.42C395.8 614.712 392.234 623.653 390.714 633.898C388.615 648.039 384.603 661.77 382.201 675.864C377.639 702.655 369.185 728.87 361.737 754.995C354.146 781.63 351.609 809.07 344.635 835.839C338.886 857.892 335.949 882.183 332.74 904.855C324.953 959.857 313.857 1014.96 305.414 1069.99C297.494 1121.59 296.7 1174.23 297.156 1226.3C297.436 1258.09 302.405 1289.8 302.145 1321.63C302.082 1329.5 302.759 1337.35 303.18 1345.2C303.475 1350.75 300.424 1366.11 303.012 1370.76C304.649 1373.7 311.687 1376.41 314.178 1380.49C318.119 1386.95 318.949 1394.67 325.279 1399.56C330.409 1379.36 327.984 1352.71 326.863 1332.1C325.778 1312.24 327.885 1291.72 328.3 1271.56C329.11 1232.01 331.257 1193.04 333.336 1153.47C335.613 1110.07 342.09 1065.62 348.418 1022.55C354.172 983.39 358.01 943.534 362.532 904.584ZM174.779 288.115C171.997 287.861 169.216 287.61 166.434 287.357C166.849 293.077 165.611 302.34 169.743 305.325C172.873 307.586 179.213 306.843 183.009 307.566C195.449 309.939 209.866 311.924 222.215 307.601C227.014 305.921 223.932 303.29 230.539 304.383C238.499 305.702 235.593 306.932 237.89 311.778C239.66 315.517 240.572 321.881 242.582 326.371C245.272 332.379 250.723 343.131 248.392 350.069C246.128 356.813 237.676 358.85 234.085 366.489C231.413 372.166 232.044 380.421 230.656 386.675C228.804 395.017 226.464 403.326 225.429 411.822C224.128 422.524 224.573 435.082 238.163 436.742C250.774 438.285 259.791 434.329 268.248 425.366C284.399 408.256 302.841 384.101 312.329 362.578C313.437 360.063 316.165 355.866 315.786 353.175C315.034 347.85 314.706 353.24 312.976 349.542C311.326 346.006 308.735 342.798 307.212 338.875C301.733 324.778 297.848 310.004 295.653 295.082C294.657 288.324 294.323 281.647 294.494 274.821C294.55 272.49 295.984 265.493 295.128 263.898C294.257 262.28 289.713 261.535 288.296 259.93C285.67 256.955 281.159 248.557 278.25 246.33C274.672 243.594 266.666 245.761 265.211 240.319C262.886 231.61 317.92 217.424 292.209 205.803C273.013 197.126 243.57 240.988 236.859 206.474C235.694 200.495 237.911 192.38 235.223 186.901C232.253 180.845 224.168 178.581 218.521 175.634C211.315 171.877 204.036 168.016 197.033 163.901C192.229 161.081 185.309 153.592 180.196 152.906C182.209 163.071 178.35 173.147 178.286 183.293C189.361 180.368 196.982 180.306 207.912 185.507C213.119 187.982 232.732 202.028 222.796 208.784C214.744 204.14 206.132 200.112 197.158 197.382C193.617 196.303 189.198 194.837 185.433 194.763C176.694 194.591 177.924 195.483 174.644 201.914C171.48 208.109 172.16 224.265 165.216 228.221C158.036 232.311 163.573 226.586 157.442 227.908C153.945 228.663 150.134 231.2 146.933 232.634C151.319 237.28 160.173 241.522 163.082 246.683C167.325 254.207 165.853 269.769 166.518 278.002C172.073 276.061 177.922 275.981 183.554 274.54C188.847 273.184 196.188 267.312 196.74 275.944C197.357 285.563 181.776 288.115 174.779 288.115ZM247.085 541.363C247.519 533.051 247.992 524.742 248.94 516.465C249.579 510.906 254.987 494.785 251.93 489.902C248.606 484.592 237.465 484.254 232.103 482.98C221.825 480.534 211.967 478.532 201.521 476.917C191.913 475.433 182.861 475.12 173.179 474.69C162.636 474.226 160.023 471.495 157.692 482.833C155.861 491.748 153.403 501.034 153.061 510.164C152.74 518.731 155.392 526.168 146.691 531.943C165.797 531.943 190.681 515.342 208.116 530.186C233.056 551.414 189.654 557.529 178.21 562.216C187.723 566.728 201.848 570.271 206.325 580.578C211.351 592.13 204.058 597.043 192.899 597.967C193.949 602.42 197.966 605.312 199.163 610.667C200.915 618.517 195.23 615.917 202.484 621.99C212.036 629.984 231.701 635.329 243.415 640.42C246.158 641.618 248.935 642.741 251.742 643.792C256.131 647.604 259.371 646.878 261.464 641.613C267.473 637.901 272.822 629.619 278.154 624.801C290.013 614.081 303.103 604.674 317.197 596.933C311.354 594.573 304.367 599.908 298.76 597.311C294.229 595.211 295.935 591.392 293.223 588.532C294.31 584.803 293.162 583.438 289.776 584.44C288.085 584.616 286.511 584.335 285.054 583.602C282.219 580.173 280.945 579.05 280.757 573.755C280.558 568.137 283.892 566.154 285.171 561.656C289.331 558.891 289.236 556.172 284.888 553.509C283.1 550.656 282.125 547.563 281.964 544.225C281.136 531.834 292.726 526.839 301.565 520.284C285.739 518.587 286.343 500.473 297.293 492.554C308.643 484.344 332.676 487.706 346.4 489.557C349.256 489.94 356.966 493.533 359.852 491.242C361.622 489.838 360.372 477.968 360.453 475.873C360.639 471.117 361.823 465.447 361.047 460.716C359.421 450.809 362.865 455.798 355.558 455.522C338.165 454.864 316.018 469.681 300.717 476.666C283.589 484.485 272.583 485.688 272.405 505.075C272.234 523.432 266.959 541.723 264.656 559.788C263.65 567.677 262.932 608.664 248.135 593.539C242.399 587.673 246.074 578.65 246.5 571.414C247.08 561.458 246.737 551.347 247.085 541.363ZM-709.694 1155.86C-701.227 1157.33 -687.436 1152.59 -678.2 1152.09C-662.049 1151.22 -645.416 1149.72 -629.592 1146.44C-617.213 1143.87 -603.107 1141.62 -596.431 1129.92C-590.463 1119.47 -588.353 1106.38 -585.139 1094.98C-583.432 1088.92 -579.028 1080.14 -579.028 1073.88C-579.028 1065.73 -580.154 1067.34 -588.858 1062.88C-599.874 1057.24 -610.593 1049.38 -622.476 1046.18C-626.07 1045.49 -629.666 1044.82 -633.265 1044.16C-637.922 1041.53 -640.55 1042.82 -641.159 1048.05C-645.703 1052.72 -648.368 1061.34 -652.181 1066.81C-660.874 1079.28 -671.198 1087.78 -684.685 1094.97C-708.955 1107.91 -731.569 1117.89 -757.563 1126.35C-771.888 1131.01 -785.098 1137.55 -799.1 1142.69C-810.318 1146.81 -825.8 1148.06 -834.417 1157.22C-844.139 1167.56 -829.195 1171.32 -820.889 1178.31C-814.083 1184.04 -813.95 1185.35 -804.64 1182.57C-797.704 1180.5 -791.555 1176.54 -784.894 1173.85C-762.079 1164.66 -734.465 1158.54 -709.694 1155.86ZM-188.272 1319.86C-196.774 1318.07 -205.28 1316.27 -213.782 1314.48C-205.42 1329.71 -187.831 1352.01 -200.455 1369.64C-205.173 1376.23 -213.02 1378.1 -220.03 1381.45C-228.515 1385.49 -236.348 1390.67 -244.369 1395.49C-277.444 1415.37 -311.057 1435.52 -345.907 1452.57C-334.998 1456.01 -318.222 1458.39 -306.986 1455.39C-293.901 1451.91 -281.787 1443.9 -268.353 1440.4C-244.254 1434.12 -218.887 1428.78 -194.403 1425.56C-174.39 1422.93 -124.294 1428.87 -126.727 1399.5C-129.037 1371.61 -146.106 1345.01 -151.185 1317.44C-163.648 1320.14 -175.539 1319.67 -188.272 1319.86ZM318.56 873.514C328.252 827.093 334.041 779.883 345.473 733.795C351.176 710.803 355.196 687.495 360.766 664.498C363.36 653.799 365.318 642.995 367.842 632.315C370.4 621.503 375.902 611.524 377.16 600.348C367.899 602.584 365.756 623.285 362.949 631.072C357.799 645.36 352.182 659.089 345.565 672.768C335.045 694.51 323.883 715.487 312.016 736.565C299.504 758.8 286.287 780.182 270.655 800.485C265.52 807.157 258.55 812.385 255.239 819.703C250.033 831.215 247.845 844.936 242.873 856.915C246.375 858.65 255.42 859.082 259.715 859.91C267.702 861.448 273.299 862.814 280.971 866.522C294.486 873.052 305.842 880.792 314.871 892.54C317.141 886.51 317.732 879.897 318.56 873.514ZM-58.1566 1227.7C-58.3171 1182.99 -58.9666 1137.9 -58.2152 1093.53C-58.0089 1081.2 -56.9798 1067.91 -55.1483 1055.68C-53.9996 1048 -47.2342 1031.66 -51.6816 1027.97C-55.482 1024.82 -75.5437 1026.9 -80.4674 1026.79C-90.0168 1026.57 -99.5356 1026.15 -109.103 1025.45C-109.103 1042.02 -102.47 1060.84 -99.3879 1077.23C-96.5147 1092.52 -94.1534 1107.89 -91.782 1123.25C-86.6494 1156.51 -85.1898 1190.23 -79.6166 1223.58C-74.5681 1253.81 -67.9072 1283.92 -64.2342 1314.16C-62.2193 1330.75 -58.1413 1346.41 -54.9726 1363C-53.3169 1371.65 -47.2826 1407.27 -39.6818 1410.77C-38.0745 1397.99 -44.6387 1382.56 -45.8155 1369.64C-47.0279 1356.3 -47.9678 1342.87 -50.1839 1329.46C-52.7871 1313.72 -54.1015 1297.58 -55.1 1281.64C-55.7087 1271.89 -55.8947 1262.17 -56.7582 1252.42C-57.3823 1245.35 -60.1256 1234.63 -58.1566 1227.7ZM180.586 629.865C180.902 624.997 167.99 625.193 165.586 619.597C160.708 608.234 171.826 610.279 178.663 609.104C176.225 602.785 130.582 605.086 141.217 588.028C148.593 576.193 176.567 594.307 184.043 583.061C188.956 575.673 175.583 574.657 170.28 573.917C162.3 572.801 143.499 576.406 144.118 566.301C144.898 553.603 181.447 544.839 191.699 541.109C190.563 532.415 146.574 544.775 140.208 548.298C125.799 556.277 114.759 570.589 112.645 586.497C110.182 605.007 119.8 619.583 138.744 624.125C146.642 626.018 152.48 626.229 159.788 629.077C164.597 630.948 180.161 635.617 183.457 630.894C182.499 630.551 181.544 630.208 180.586 629.865ZM438.825 514.741C439.553 506.836 446.372 491.957 438.517 486.764C427.523 479.496 422.969 491.473 420.478 498.666C417.431 507.45 404.626 528.951 415.824 534.425C418.427 535.698 430.771 534.217 432.949 533.377C439.013 534.92 440.97 532.703 438.825 526.722V514.741ZM170.545 1153.04C169.855 1131.44 179.766 1105.47 185.382 1084.31C191.75 1060.34 195.105 1035.89 201.85 1012.18C194.346 1013.06 186.773 1013.78 179.358 1015.25C169.244 1017.25 169.063 1016.94 169.789 1026.62C170.874 1041.16 169.452 1055.42 168.683 1069.96C167.142 1099.06 170.897 1128.65 168.4 1157.57C170.627 1158.12 171.34 1156.61 170.545 1153.04ZM450.608 586.875C474.911 590.505 498.202 598.024 520.317 608.128C532.508 613.696 545.934 619.68 559.557 621.903C574.692 624.376 590.742 623.215 606.198 624.17C611.646 624.505 625.969 627.089 631.283 623.961C636.545 620.862 636.133 615.612 636.38 609.353C637.019 593.253 629.551 577.49 622.836 563.045C617.077 550.654 612.721 541.191 603.783 530.532C592.306 516.84 582.311 502.065 571.561 487.775C563.456 477.004 555.267 466.386 547.007 455.627C541.097 447.924 541.377 445.272 532.47 446.135C523.7 446.984 514.869 452.044 506.608 454.725C494.346 458.705 479.498 460.889 468.316 467.253C461.087 471.368 460.764 472.126 460.848 479.307C460.927 485.996 463.138 494.154 467.236 499.387C475.754 510.25 489.873 516 501.99 521.42C509 524.553 515.057 528.998 521.298 533.322C528.02 537.984 541.584 540.729 546.729 546.042C561.706 561.515 534.441 558.456 526.823 557.989C510.383 556.98 494.033 557.134 477.471 557.122C459.393 557.109 441.461 556.289 423.639 556.863C413.2 557.199 401.223 552.033 394.461 543.42C391.187 539.248 389.911 535.305 385.63 530.976C380.018 525.308 375.138 519.337 368.311 514.952C357.142 507.776 336.846 503.715 323.55 506.394C328.31 507.043 350.702 514.482 340.845 523.833C339.645 524.971 325.241 525.716 322.11 527.12C316.461 529.652 309.339 533.332 306.025 538.679C315.674 537.101 351.459 535.275 333.203 553.342C328.723 557.778 315.857 562.203 326.805 566.919C329.319 568.003 334.352 566.47 337.59 567.446C342.401 568.9 346.334 572.788 350.843 574.861C363.63 580.747 381.253 584.378 394.598 583.088C413.05 581.301 432.279 584.517 450.608 586.875ZM-38.7267 1131.27C-38.0975 1157.22 -39.0578 1183.33 -38.4897 1209.4C-37.8835 1237.25 -34.2232 1264.54 -32.4784 1292.1C-30.9119 1316.81 -27.4935 1341.04 -24.7171 1365.63C-23.12 1379.79 -21.2784 1393.33 -18.8229 1407.39C-16.5228 1420.54 -16.1305 1432.13 -32.2415 1435.66C-63.0446 1442.43 -67.8308 1399.18 -73.7836 1380.96C-82.6707 1353.77 -88.3688 1325.22 -92.7729 1297.03C-100.97 1244.53 -111.869 1192.75 -116.123 1139.81C-118.741 1107.2 -122.539 1074.93 -124.694 1042.36C-125.117 1035.98 -123.449 1026.14 -129.192 1023.3C-132.649 1021.59 -142.163 1021.58 -146.524 1020.34C-158.674 1016.89 -169.881 1011.81 -181.736 1006.54C-173.323 1049.47 -170.544 1092.19 -164.232 1135.5C-160.885 1158.48 -154.476 1182.29 -148.923 1204.91C-143.169 1228.35 -141.89 1253.58 -135.252 1276.51C-132.328 1286.62 -129.852 1290.74 -134.096 1301.11C-139.302 1313.84 -135.848 1316.89 -129.32 1329.39C-117.312 1352.39 -108.145 1379.54 -110.18 1405.48C-111.841 1426.66 -128.24 1437.74 -148.554 1443.46C-173.964 1450.61 -200.572 1449.76 -226.136 1457.88C-248.408 1464.95 -271.038 1470.17 -292.666 1479.5C-301.387 1483.26 -309.673 1487.73 -319.358 1488.42C-332.639 1489.36 -341.595 1481.84 -354.14 1480.27C-361.98 1479.3 -373.46 1482.95 -377.976 1474.93C-381.558 1468.57 -377.505 1454.69 -373.009 1449.57C-360.383 1435.19 -335.097 1422.65 -318.069 1414.17C-298.443 1404.38 -279.454 1392.14 -261.269 1379.51C-250.248 1371.86 -239.007 1364.51 -227.993 1356.84C-220.708 1351.77 -217.939 1351.74 -218.683 1343.67C-219.276 1337.24 -222.246 1331 -222.766 1324.42C-223.163 1319.38 -221.352 1312.5 -223.795 1309.21C-225.591 1306.78 -232.336 1305.07 -234.987 1303.23C-244.684 1296.52 -246.888 1288.22 -251.292 1278.02C-261.295 1254.84 -272.788 1232.31 -282.447 1208.95C-303.186 1158.78 -315.84 1106.03 -333.034 1054.84C-350.599 1002.54 -366.305 947.639 -375.979 893.38C-388.924 897.224 -401.14 914.235 -411.449 922.651C-425.377 934.027 -439.646 945.027 -453.304 956.713C-475.691 975.871 -498.359 994.502 -516.859 1017.44C-525.772 1028.49 -533.069 1040.39 -541.139 1052C-545.8 1058.7 -550.146 1066.29 -555.194 1072.67C-556.004 1073.7 -556.027 1075.8 -556.901 1076.67C-558.824 1078.59 -562.494 1076.04 -563.727 1077.3C-571.333 1085.06 -571.234 1107.1 -573.605 1117.34C-576.871 1131.46 -580.539 1147.69 -591.833 1157.42C-609.279 1172.45 -641.452 1174.77 -663.531 1175.55C-691.866 1176.56 -719.353 1184.26 -746.236 1192.54C-758.775 1196.4 -770.987 1200.91 -783.572 1204.66C-790.811 1206.82 -799.069 1211.12 -806.8 1210.29C-816.123 1209.3 -823.484 1201.64 -830.313 1195.95C-841.238 1186.85 -851.353 1177.87 -851.001 1162.94C-850.607 1147.13 -841.832 1135.2 -828.008 1127.35C-801.283 1112.17 -771.392 1102.44 -742.586 1091.94C-731.546 1087.92 -722.096 1083.47 -711.54 1078.06C-696.627 1070.4 -679.459 1064.16 -666.226 1054.05C-662.324 1051.07 -647.986 1041.94 -646.763 1037.23C-646.603 1036.61 -650.186 1029.42 -650.202 1028.28C-650.237 1025.34 -648.457 1022.17 -647.362 1019.65C-640.469 1003.84 -628.907 988.613 -620.068 973.702C-603.881 946.389 -587.633 918.932 -568.865 893.243C-531.442 842.029 -489.403 791.883 -444.03 747.176C-421.91 725.381 -402.796 700.66 -380.365 679.166C-371.478 670.653 -362.097 663.72 -351.147 658.194C-338.941 652.034 -325.239 650.827 -311.248 648.946C-277.342 644.391 -249.027 654.179 -217.195 662.697C-187.103 670.748 -156.977 677.539 -126.717 685.925C-93.4835 695.134 -60.5917 703.967 -27.463 714.003C-9.76256 719.366 8.44726 722.658 26.2317 727.804C34.7954 730.279 67.1701 745.794 74.3098 740.698C51.8182 730.398 28.7764 721.011 4.71311 714.793C-2.37316 712.965 -6.89955 714.99 -6.63719 707.048C-6.49199 702.717 -1.5046 696.87 0.291162 693.305C4.59081 684.769 9.45847 676.428 13.6664 667.868C-1.58868 672.094 -42.5933 686.725 -54.0887 671.6C-66.1191 655.769 -56.0755 624.731 -48.5359 609.231C-28.8537 568.768 4.62138 535.002 37.2381 504.501C44.2938 497.906 59.5031 489.293 63.2627 480.895C64.4064 478.34 61.9178 474.588 64.4981 471.271C66.0315 469.298 72.1932 467.949 74.6563 465.822C83.6249 458.074 90.7799 441.771 96.9772 431.613C103.467 420.976 109.316 409.456 117.472 399.912C130.812 384.305 144.584 367.761 166.187 364.111C176.781 362.322 188.034 363.276 198.187 359.705C210.467 355.386 222.136 348.583 234.536 344.11C231.459 337.938 228.965 328.123 222.997 327.45C217.25 326.799 208.822 331.619 202.245 331.584C192.639 331.532 184.44 330.034 175.171 328.247C164.911 326.267 161.531 326.627 157.791 315.766C153.869 304.388 154.857 291.174 154.89 279.356C154.905 273.581 156.08 266.412 155.575 260.745C154.819 252.204 153.117 251.876 146.258 246.444C137.686 239.658 127.121 230.678 137.62 218.888C143.293 212.517 154.951 217.471 159.977 210.626C165.094 203.653 164.847 186.138 166.406 177.948C150.629 185.517 156.413 157.222 156.411 150.414C156.408 140.507 149.605 122.69 159.399 114.448C163.95 110.622 167.331 113.787 172.534 111.588C178.472 109.079 182.211 102.496 188.528 99.9443C201.083 94.8703 213.903 100.98 226.795 99.9716C241.581 98.8162 256.105 96.5848 270.973 98.9007C278.019 99.994 280.984 102.606 286.944 105.533C292.675 108.348 298.49 109.118 304.716 110.93C310.256 112.542 315.113 113.357 318.855 118.069C321.815 121.796 320.61 128.065 323.598 131.278C326.545 134.444 332.375 133.984 335.888 137.743C339.261 141.351 341.278 147.315 343.03 151.805C345.399 157.853 345.677 160.124 349.847 164.965C353.481 169.189 358.716 172.586 361.75 177.404C368.897 188.762 369.08 205.186 366.798 217.963C366.024 222.314 359.562 233.561 360.573 237.263C361.536 240.786 367.595 239.86 370.339 242.089C372.71 244.014 374.796 252.594 376.666 253.119C380.706 254.249 385.688 246.464 388.75 245.296C394.068 243.266 396.295 241.184 399.242 248.835C401.425 254.513 398.383 262.218 396.781 267.637C394.743 274.535 392.492 282.842 387.092 288.058C380.744 294.19 375.662 290.838 368.658 294.141C358.161 299.09 361.258 314.566 348.341 318.989C336.033 323.203 322.472 309.944 313.162 303.849C315.09 318.646 322.35 332.904 318.865 348.069C347.175 337.245 375.173 321.884 406.025 318.499C421.756 316.772 437.648 314.727 452.498 321.101C469.88 328.56 480.53 345.015 492.295 358.686C514.408 384.382 537.095 409.357 558.319 435.88C577.784 460.209 594.196 488.399 615.623 511.18C637.348 534.281 653.744 571.762 651.365 603.752C651.151 606.639 648.858 613.199 649.218 616.313C649.498 618.698 651.719 621.722 651.684 623.645C651.563 630.118 649.37 633.845 643.048 637.436C632.088 643.666 615.755 646.819 603.368 648.364C586.911 650.419 566.755 650.64 550.29 648.446C533.308 646.18 518.381 636.904 502.765 631.299C489.066 626.379 475.308 623.307 460.914 620.169C452.975 618.437 444.184 613.644 439.278 618.283C434.772 622.547 433.838 644.423 432.788 650.24C421.4 713.29 407.866 774.203 395.879 836.932C382.295 908.033 373.006 979.106 363.558 1050.81C354.972 1115.99 352.165 1181.91 350.244 1247.03C349.327 1278.09 349.195 1308.82 349.388 1339.91C349.498 1357.32 358.415 1415.43 331.971 1417.66C316.43 1418.97 303.997 1397.22 299.833 1385.36C293.577 1367.55 290.319 1348.36 289.32 1329.65C287.303 1291.76 284.656 1253.84 283.09 1215.94C281.394 1174.88 283.551 1133.05 287.01 1092.12C290.492 1050.92 299.265 1010.32 301.954 969.053C293.882 980.294 291.3 982.406 277.856 987.301C263.787 992.428 250.254 998.491 236.059 1003.27C231.229 1004.89 223.692 1005.91 219.734 1008.57C212.428 1013.48 217.227 1007.91 214.894 1017.47C212.403 1027.68 211.934 1039.94 211.272 1050.43C208.162 1099.67 194.186 1148.55 187.739 1197.53C186.182 1209.35 188.403 1259.55 167.55 1243.73C151.49 1231.55 151.808 1193.28 149.523 1175.35C146.482 1151.46 148.176 1126.89 148.657 1102.85C149.205 1075.48 149.676 1046.76 156.37 1020.03C144.393 1018.03 127.735 1023.48 115.679 1024.39C105.24 1025.19 94.8377 1025.69 84.4579 1026.25C59.7043 1027.58 34.207 1028.63 9.03567 1028.16C4.45328 1028.07 -25.4838 1023.98 -29.3097 1027.28C-30.5527 1028.35 -30.9322 1043.08 -31.164 1044.88C-32.0453 1051.65 -33.24 1058.41 -34.1315 1065.14C-36.9742 1086.66 -39.5418 1109.76 -38.7267 1131.27Z" fill="black"/>
<path fill-rule="evenodd" clip-rule="evenodd" d="M82.7051 454.758C80.6805 458.051 78.6558 461.343 76.629 464.641C77.3191 460.395 78.8633 456.756 82.7051 454.758Z" fill="black"/>
<path fill-rule="evenodd" clip-rule="evenodd" d="M435.123 317.029C431.746 317.268 428.371 317.505 424.996 317.745C428.373 317.505 431.748 317.268 435.123 317.029Z" fill="black"/>
<path fill-rule="evenodd" clip-rule="evenodd" d="M271.764 99.2666C268.903 98.9108 266.04 98.558 263.177 98.2022C266.015 98.8426 269.124 96.4678 271.764 99.2666Z" fill="black"/>
<path fill-rule="evenodd" clip-rule="evenodd" d="M202.203 309.823C205.577 309.594 208.956 309.367 212.33 309.137C208.954 309.367 205.577 309.594 202.203 309.823Z" fill="black"/>
<path fill-rule="evenodd" clip-rule="evenodd" d="M247.716 344.07C247.754 346.048 247.791 348.029 247.834 350C247.795 348.017 247.756 346.044 247.716 344.07Z" fill="black"/>
<path fill-rule="evenodd" clip-rule="evenodd" d="M175.873 307.175C178.574 307.394 181.277 307.616 183.975 307.833C181.274 307.614 178.574 307.394 175.873 307.175Z" fill="black"/>
<path fill-rule="evenodd" clip-rule="evenodd" d="M179.924 287.74C178.568 287.738 177.21 287.736 175.873 287.736C177.234 287.74 178.58 287.74 179.924 287.74Z" fill="black"/>
<path fill-rule="evenodd" clip-rule="evenodd" d="M182.331 201.951C192.384 199.418 194.795 222.55 188.931 225.1C180.723 228.668 181.751 205.821 182.331 201.951Z" fill="black"/>
</g>
</g>
<defs>
<clipPath id="clip0_181_11">
<rect width="500" height="500" rx="250" fill="white"/>
</clipPath>
<clipPath id="clip1_181_11">
<rect width="2074" height="1518" fill="white" transform="translate(-851 97)"/>
</clipPath>
</defs>
</svg>
